<svg width="1529" height="1081" viewBox="0 0 1529 1081" fill="none" xmlns="http://www.w3.org/2000/svg">
<g clip-path="url(#clip0)">
<path d="M1528.24 1080.48V0H0V1080.48H1528.24Z" fill="#F8F5E7"/>
<path d="M1519.11 640.563C1457.44 639.67 1411.95 696.773 1414.23 778.775C1416.93 876.062 1397.4 973.03 1320.24 982.104C1266.23 988.455 1216.68 1014.68 1217.63 1067.29C1219.09 1148.72 1363.41 1170.45 1427.07 1151.26C1679.44 1075.17 1668.02 642.719 1519.11 640.563Z" fill="#547DBE"/>
<path d="M1601.25 94.3581C1601.25 10.8221 1476.02 -51.7829 1403.03 -56.8959C1294.43 -64.5029 1268.26 59.3101 1373.4 109.011C1449.02 144.759 1399.76 202.421 1477.89 216.719C1549.87 229.89 1601.25 177.893 1601.25 94.3581Z" fill="#F8BB15"/>
<path d="M-77.52 1016.25C-58.108 1097.49 78.239 1129.29 150.422 1117.3C257.822 1099.46 254.494 972.953 140.684 949.045C58.827 931.845 93.337 864.318 14.021 868.569C-59.048 872.485 -96.933 934.998 -77.52 1016.25Z" fill="#F8BB15"/>
<path d="M1556.5 38.6001C1517.66 124.721 1416 163.192 1329.88 124.354C1309.34 115.157 1290.82 101.977 1275.4 85.5754C1259.99 69.1742 1247.97 49.8781 1240.07 28.804C1232.04 7.77307 1228.27 -14.6403 1228.97 -37.139C1229.66 -59.6377 1234.81 -81.7747 1244.12 -102.269C1282.96 -188.392 1384.62 -226.863 1470.74 -188.025C1534.08 -159.464 1571.64 -96.9339 1571.64 -31.5839C1571.64 -7.37907 1566.48 16.5469 1556.5 38.6001ZM1331.41 120.958C1415.66 158.952 1515.11 121.317 1553.11 37.0681C1562.87 15.4955 1567.92 -7.90896 1567.92 -31.586C1567.92 -95.51 1531.17 -156.686 1469.22 -184.628C1384.97 -222.62 1285.52 -184.986 1247.52 -100.736C1237.76 -79.1628 1232.71 -55.7576 1232.71 -32.0799C1232.71 31.8411 1269.46 93.0221 1331.41 120.958Z" fill="#48429A"/>
<path d="M113.659 381.657C134.87 340.015 138.651 292.808 137.537 246.93C136.626 208.8 133.248 168.002 154.711 135.263C169.811 112.215 213.658 102.524 201.925 5.30006C188.61 -105.028 57.221 -97.419 -44.919 31.934C-119.279 126.101 -123.362 359.123 -41.564 427.605C17.08 476.702 81.951 443.908 113.659 381.657Z" fill="#0A9C58"/>
<path d="M-5.45 381.17C-12.721 319.531 -12.431 252.734 22.499 199.457C47.069 161.951 142.28 98.064 125.158 19.093C101.76 -88.841 85.997 -205.222 -1.229 -117.994C-47.685 -71.54 -78.866 -2.67896 -85.64 70.1651C-94.323 163.541 -87.061 278.142 -20.251 365.18C-5.936 383.83 -1.32 416.136 -5.45 381.17Z" fill="#E94435"/>
<path d="M1352.05 1016.84C1352.05 1016.12 1351.84 1015.42 1351.44 1014.82C1351.05 1014.22 1350.48 1013.76 1349.82 1013.48C1349.15 1013.21 1348.42 1013.13 1347.72 1013.27C1347.01 1013.41 1346.36 1013.75 1345.85 1014.26C1345.34 1014.77 1345 1015.42 1344.86 1016.12C1344.71 1016.82 1344.78 1017.56 1345.06 1018.22C1345.33 1018.88 1345.8 1019.45 1346.39 1019.85C1346.99 1020.25 1347.69 1020.47 1348.41 1020.47C1348.89 1020.47 1349.36 1020.38 1349.8 1020.2C1350.24 1020.01 1350.64 1019.75 1350.98 1019.41C1351.32 1019.07 1351.59 1018.67 1351.77 1018.23C1351.96 1017.79 1352.05 1017.32 1352.05 1016.84Z" fill="#F16A2E"/>
<path d="M1379.8 1016.9C1379.8 1016.18 1379.59 1015.48 1379.19 1014.88C1378.8 1014.28 1378.23 1013.81 1377.57 1013.54C1376.9 1013.26 1376.17 1013.19 1375.47 1013.32C1374.76 1013.46 1374.11 1013.81 1373.6 1014.32C1373.1 1014.82 1372.75 1015.47 1372.61 1016.17C1372.46 1016.88 1372.54 1017.61 1372.81 1018.27C1373.08 1018.94 1373.55 1019.51 1374.14 1019.91C1374.74 1020.31 1375.44 1020.52 1376.16 1020.52C1376.64 1020.53 1377.11 1020.43 1377.55 1020.25C1377.99 1020.07 1378.4 1019.8 1378.73 1019.46C1379.07 1019.13 1379.34 1018.73 1379.52 1018.29C1379.71 1017.85 1379.8 1017.37 1379.8 1016.9Z" fill="#F16A2E"/>
<path d="M1407.56 1016.95C1407.56 1016.24 1407.34 1015.53 1406.95 1014.93C1406.55 1014.34 1405.98 1013.87 1405.32 1013.59C1404.65 1013.32 1403.92 1013.24 1403.22 1013.38C1402.51 1013.52 1401.87 1013.87 1401.36 1014.37C1400.85 1014.88 1400.5 1015.53 1400.36 1016.23C1400.22 1016.94 1400.29 1017.67 1400.56 1018.33C1400.83 1019 1401.3 1019.56 1401.9 1019.96C1402.49 1020.37 1403.2 1020.58 1403.91 1020.58C1404.39 1020.58 1404.86 1020.49 1405.31 1020.31C1405.75 1020.13 1406.15 1019.86 1406.49 1019.52C1406.82 1019.19 1407.09 1018.78 1407.28 1018.34C1407.46 1017.9 1407.55 1017.43 1407.56 1016.95Z" fill="#F16A2E"/>
<path d="M1435.3 1017.01C1435.31 1016.29 1435.09 1015.59 1434.7 1014.99C1434.3 1014.39 1433.73 1013.92 1433.07 1013.65C1432.4 1013.37 1431.67 1013.3 1430.97 1013.44C1430.26 1013.57 1429.62 1013.92 1429.11 1014.43C1428.6 1014.93 1428.25 1015.58 1428.11 1016.29C1427.97 1016.99 1428.04 1017.72 1428.31 1018.39C1428.58 1019.05 1429.05 1019.62 1429.65 1020.02C1430.24 1020.42 1430.95 1020.63 1431.66 1020.63C1432.63 1020.64 1433.55 1020.26 1434.24 1019.58C1434.92 1018.9 1435.3 1017.97 1435.3 1017.01Z" fill="#F16A2E"/>
<path d="M1463.06 1017.06C1463.06 1016.35 1462.85 1015.64 1462.45 1015.04C1462.05 1014.44 1461.48 1013.98 1460.82 1013.7C1460.16 1013.42 1459.43 1013.35 1458.72 1013.49C1458.02 1013.63 1457.37 1013.97 1456.86 1014.48C1456.35 1014.99 1456 1015.63 1455.86 1016.34C1455.72 1017.04 1455.79 1017.77 1456.06 1018.44C1456.34 1019.1 1456.8 1019.67 1457.4 1020.07C1457.99 1020.47 1458.7 1020.69 1459.42 1020.69C1460.38 1020.69 1461.3 1020.31 1461.99 1019.63C1462.67 1018.95 1463.05 1018.03 1463.06 1017.06Z" fill="#F16A2E"/>
<path d="M1490.81 1017.12C1490.81 1016.4 1490.6 1015.7 1490.2 1015.1C1489.8 1014.5 1489.23 1014.03 1488.57 1013.76C1487.91 1013.48 1487.18 1013.41 1486.47 1013.55C1485.77 1013.68 1485.12 1014.03 1484.61 1014.54C1484.1 1015.04 1483.75 1015.69 1483.61 1016.39C1483.47 1017.1 1483.54 1017.83 1483.81 1018.49C1484.09 1019.16 1484.55 1019.73 1485.15 1020.13C1485.75 1020.53 1486.45 1020.74 1487.17 1020.75C1488.13 1020.75 1489.05 1020.37 1489.74 1019.69C1490.42 1019.01 1490.8 1018.08 1490.81 1017.12Z" fill="#F16A2E"/>
<path d="M1379.85 991.132C1379.86 990.413 1379.64 989.71 1379.25 989.112C1378.85 988.513 1378.28 988.047 1377.62 987.77C1376.95 987.494 1376.22 987.421 1375.52 987.559C1374.81 987.698 1374.16 988.043 1373.66 988.55C1373.15 989.058 1372.8 989.705 1372.66 990.409C1372.52 991.114 1372.59 991.845 1372.86 992.509C1373.13 993.174 1373.6 993.742 1374.2 994.143C1374.79 994.543 1375.49 994.758 1376.21 994.759C1376.69 994.76 1377.16 994.667 1377.6 994.485C1378.05 994.303 1378.45 994.036 1378.78 993.7C1379.12 993.363 1379.39 992.963 1379.57 992.522C1379.76 992.082 1379.85 991.609 1379.85 991.132Z" fill="#F16A2E"/>
<path d="M1407.61 991.188C1407.61 990.469 1407.4 989.766 1407 989.167C1406.6 988.569 1406.03 988.101 1405.37 987.825C1404.71 987.548 1403.98 987.475 1403.27 987.613C1402.56 987.752 1401.92 988.097 1401.41 988.604C1400.9 989.111 1400.55 989.758 1400.41 990.462C1400.27 991.167 1400.34 991.898 1400.61 992.563C1400.88 993.227 1401.35 993.796 1401.95 994.196C1402.54 994.597 1403.25 994.812 1403.96 994.813C1404.44 994.814 1404.91 994.721 1405.35 994.539C1405.8 994.358 1406.2 994.091 1406.54 993.755C1406.87 993.418 1407.14 993.018 1407.33 992.578C1407.51 992.137 1407.6 991.665 1407.61 991.188Z" fill="#F16A2E"/>
<path d="M1435.36 991.243C1435.36 990.524 1435.15 989.821 1434.75 989.223C1434.35 988.624 1433.78 988.157 1433.12 987.881C1432.46 987.604 1431.73 987.531 1431.02 987.669C1430.32 987.808 1429.67 988.153 1429.16 988.66C1428.65 989.167 1428.3 989.814 1428.16 990.519C1428.02 991.224 1428.09 991.954 1428.36 992.619C1428.64 993.284 1429.1 993.852 1429.7 994.253C1430.29 994.653 1431 994.868 1431.72 994.869C1432.68 994.871 1433.6 994.49 1434.29 993.81C1434.97 993.13 1435.35 992.207 1435.36 991.243Z" fill="#F16A2E"/>
<path d="M1463.1 991.297C1463.1 990.578 1462.89 989.875 1462.49 989.277C1462.1 988.679 1461.53 988.212 1460.87 987.935C1460.2 987.659 1459.47 987.586 1458.77 987.724C1458.06 987.863 1457.41 988.208 1456.9 988.715C1456.39 989.223 1456.05 989.87 1455.91 990.574C1455.76 991.279 1455.83 992.01 1456.11 992.674C1456.38 993.339 1456.85 993.907 1457.44 994.308C1458.04 994.708 1458.74 994.923 1459.46 994.924C1459.94 994.925 1460.41 994.832 1460.85 994.65C1461.29 994.468 1461.69 994.201 1462.03 993.865C1462.37 993.528 1462.64 993.128 1462.82 992.687C1463.01 992.247 1463.1 991.774 1463.1 991.297Z" fill="#F16A2E"/>
<path d="M1490.86 991.353C1490.86 990.634 1490.65 989.931 1490.25 989.333C1489.85 988.734 1489.28 988.268 1488.62 987.991C1487.96 987.715 1487.23 987.642 1486.52 987.78C1485.82 987.919 1485.17 988.264 1484.66 988.771C1484.15 989.279 1483.8 989.925 1483.66 990.63C1483.52 991.335 1483.59 992.066 1483.86 992.73C1484.14 993.395 1484.6 993.963 1485.2 994.364C1485.8 994.764 1486.5 994.979 1487.22 994.98C1487.69 994.981 1488.17 994.888 1488.61 994.706C1489.05 994.524 1489.45 994.257 1489.79 993.921C1490.13 993.584 1490.4 993.184 1490.58 992.743C1490.76 992.302 1490.86 991.83 1490.86 991.353Z" fill="#F16A2E"/>
<path d="M1407.66 965.421C1407.66 964.702 1407.45 963.999 1407.05 963.401C1406.65 962.802 1406.08 962.335 1405.42 962.059C1404.76 961.783 1404.02 961.71 1403.32 961.849C1402.61 961.988 1401.97 962.333 1401.46 962.84C1400.95 963.348 1400.6 963.995 1400.46 964.699C1400.32 965.404 1400.39 966.135 1400.66 966.8C1400.94 967.464 1401.4 968.032 1402 968.433C1402.6 968.833 1403.3 969.047 1404.02 969.048C1404.98 969.049 1405.91 968.668 1406.59 967.988C1407.27 967.308 1407.65 966.384 1407.66 965.421Z" fill="#F16A2E"/>
<path d="M1435.41 965.478C1435.41 964.759 1435.2 964.056 1434.8 963.458C1434.4 962.859 1433.83 962.393 1433.17 962.116C1432.51 961.84 1431.78 961.767 1431.07 961.905C1430.37 962.044 1429.72 962.389 1429.21 962.896C1428.7 963.404 1428.35 964.05 1428.21 964.755C1428.07 965.46 1428.14 966.191 1428.41 966.855C1428.69 967.52 1429.15 968.088 1429.75 968.489C1430.35 968.889 1431.05 969.104 1431.77 969.105C1432.24 969.106 1432.72 969.013 1433.16 968.831C1433.6 968.65 1434 968.383 1434.34 968.046C1434.68 967.709 1434.94 967.309 1435.13 966.868C1435.31 966.428 1435.41 965.955 1435.41 965.478Z" fill="#F16A2E"/>
<path d="M1463.16 965.532C1463.16 964.813 1462.95 964.11 1462.55 963.512C1462.15 962.914 1461.58 962.447 1460.92 962.17C1460.26 961.894 1459.53 961.821 1458.82 961.96C1458.12 962.098 1457.47 962.443 1456.96 962.951C1456.45 963.458 1456.1 964.105 1455.96 964.809C1455.82 965.514 1455.89 966.245 1456.16 966.909C1456.44 967.574 1456.9 968.142 1457.5 968.543C1458.1 968.943 1458.8 969.158 1459.52 969.159C1460.48 969.161 1461.4 968.78 1462.09 968.099C1462.77 967.419 1463.15 966.496 1463.16 965.532Z" fill="#F16A2E"/>
<path d="M1490.91 965.588C1490.91 964.869 1490.7 964.166 1490.3 963.568C1489.9 962.97 1489.34 962.503 1488.67 962.226C1488.01 961.95 1487.28 961.877 1486.57 962.015C1485.87 962.154 1485.22 962.499 1484.71 963.006C1484.2 963.514 1483.85 964.161 1483.71 964.865C1483.57 965.57 1483.64 966.301 1483.92 966.965C1484.19 967.63 1484.65 968.198 1485.25 968.599C1485.85 968.999 1486.55 969.214 1487.27 969.215C1487.75 969.216 1488.22 969.123 1488.66 968.941C1489.1 968.76 1489.5 968.493 1489.84 968.156C1490.18 967.819 1490.45 967.419 1490.63 966.978C1490.81 966.538 1490.91 966.065 1490.91 965.588Z" fill="#F16A2E"/>
<path d="M1435.46 939.71C1435.46 938.991 1435.25 938.288 1434.85 937.69C1434.45 937.092 1433.89 936.625 1433.22 936.349C1432.56 936.073 1431.83 936 1431.12 936.139C1430.42 936.278 1429.77 936.623 1429.26 937.13C1428.75 937.637 1428.4 938.284 1428.26 938.989C1428.12 939.693 1428.19 940.424 1428.47 941.089C1428.74 941.753 1429.2 942.321 1429.8 942.722C1430.4 943.122 1431.1 943.337 1431.82 943.338C1432.3 943.339 1432.77 943.246 1433.21 943.064C1433.65 942.882 1434.05 942.615 1434.39 942.278C1434.73 941.941 1435 941.541 1435.18 941.101C1435.36 940.66 1435.46 940.187 1435.46 939.71Z" fill="#F16A2E"/>
<path d="M1463.21 939.767C1463.21 939.048 1463 938.345 1462.6 937.747C1462.2 937.148 1461.64 936.681 1460.97 936.405C1460.31 936.128 1459.58 936.055 1458.87 936.193C1458.17 936.332 1457.52 936.677 1457.01 937.184C1456.5 937.691 1456.15 938.338 1456.01 939.043C1455.87 939.748 1455.94 940.478 1456.21 941.143C1456.49 941.808 1456.95 942.376 1457.55 942.777C1458.15 943.177 1458.85 943.392 1459.57 943.393C1460.04 943.394 1460.52 943.301 1460.96 943.12C1461.4 942.938 1461.8 942.671 1462.14 942.335C1462.48 941.998 1462.75 941.598 1462.93 941.157C1463.11 940.717 1463.21 940.244 1463.21 939.767Z" fill="#F16A2E"/>
<path d="M1490.96 939.821C1490.96 939.102 1490.75 938.399 1490.35 937.801C1489.95 937.202 1489.39 936.736 1488.72 936.459C1488.06 936.183 1487.33 936.11 1486.62 936.248C1485.92 936.387 1485.27 936.732 1484.76 937.239C1484.25 937.747 1483.9 938.393 1483.76 939.098C1483.62 939.803 1483.69 940.534 1483.96 941.198C1484.24 941.863 1484.7 942.431 1485.3 942.832C1485.9 943.232 1486.6 943.447 1487.32 943.448C1488.28 943.45 1489.21 943.068 1489.89 942.388C1490.57 941.708 1490.96 940.785 1490.96 939.821Z" fill="#F16A2E"/>
<path d="M1463.21 915.083C1463.21 914.364 1463 913.661 1462.6 913.063C1462.2 912.464 1461.64 911.997 1460.97 911.721C1460.31 911.444 1459.58 911.371 1458.87 911.509C1458.17 911.648 1457.52 911.993 1457.01 912.5C1456.5 913.007 1456.15 913.654 1456.01 914.359C1455.87 915.063 1455.94 915.794 1456.21 916.459C1456.49 917.123 1456.95 917.692 1457.55 918.093C1458.15 918.493 1458.85 918.708 1459.57 918.709C1460.04 918.71 1460.52 918.617 1460.96 918.436C1461.4 918.254 1461.8 917.987 1462.14 917.65C1462.48 917.314 1462.75 916.914 1462.93 916.473C1463.11 916.033 1463.21 915.56 1463.21 915.083Z" fill="#F16A2E"/>
<path d="M1490.96 915.138C1490.96 914.419 1490.75 913.716 1490.35 913.118C1489.95 912.519 1489.39 912.052 1488.72 911.776C1488.06 911.499 1487.33 911.426 1486.62 911.564C1485.92 911.703 1485.27 912.048 1484.76 912.555C1484.25 913.062 1483.9 913.709 1483.76 914.414C1483.62 915.119 1483.69 915.849 1483.96 916.514C1484.24 917.179 1484.7 917.747 1485.3 918.148C1485.9 918.548 1486.6 918.763 1487.32 918.764C1488.28 918.766 1489.21 918.385 1489.89 917.705C1490.57 917.025 1490.96 916.102 1490.96 915.138Z" fill="#F16A2E"/>
<path d="M1490.96 890.692C1490.96 889.973 1490.75 889.27 1490.35 888.672C1489.95 888.074 1489.39 887.607 1488.72 887.33C1488.06 887.054 1487.33 886.981 1486.62 887.119C1485.92 887.258 1485.27 887.603 1484.76 888.11C1484.25 888.618 1483.9 889.265 1483.76 889.969C1483.62 890.674 1483.69 891.405 1483.96 892.069C1484.24 892.734 1484.7 893.302 1485.3 893.703C1485.9 894.103 1486.6 894.318 1487.32 894.319C1487.8 894.32 1488.27 894.227 1488.71 894.045C1489.15 893.864 1489.55 893.597 1489.89 893.26C1490.23 892.923 1490.5 892.523 1490.68 892.082C1490.86 891.642 1490.96 891.169 1490.96 890.692Z" fill="#F16A2E"/>
<path d="M1468.31 1000.59V77.6301H62.021V1000.59H1468.31Z" fill="white"/>
<path d="M1461.65 482.124C1461.41 482.59 1461.26 483.099 1461.21 483.624C1461.16 484.148 1461.21 484.677 1461.37 485.18C1461.52 485.683 1461.78 486.151 1462.11 486.556C1462.45 486.962 1462.86 487.297 1463.33 487.542L1489.33 501.271C1490.28 501.768 1491.38 501.871 1492.39 501.557C1493.41 501.243 1494.26 500.539 1494.75 499.598C1495.25 498.657 1495.35 497.558 1495.04 496.542C1494.73 495.526 1494.02 494.677 1493.08 494.18L1467.07 480.451C1466.61 480.205 1466.1 480.053 1465.57 480.004C1465.05 479.955 1464.52 480.01 1464.02 480.165C1463.51 480.321 1463.04 480.574 1462.64 480.91C1462.23 481.246 1461.9 481.658 1461.65 482.124Z" fill="#F16A2E"/>
<path d="M1469.47 507.413C1469.93 507.659 1470.44 507.811 1470.97 507.86C1471.49 507.909 1472.02 507.854 1472.52 507.698C1473.03 507.543 1473.49 507.29 1473.9 506.953C1474.3 506.617 1474.64 506.204 1474.88 505.738L1488.61 479.731C1489.11 478.79 1489.21 477.691 1488.9 476.675C1488.59 475.658 1487.88 474.808 1486.94 474.311C1486 473.815 1484.9 473.713 1483.88 474.027C1482.87 474.341 1482.02 475.046 1481.52 475.986L1467.79 501.993C1467.29 502.934 1467.19 504.034 1467.51 505.05C1467.82 506.066 1468.53 506.916 1469.47 507.413Z" fill="#F16A2E"/>
<path d="M307.8 88.3941C307.801 87.6755 307.588 86.9728 307.19 86.3748C306.791 85.7768 306.225 85.3104 305.561 85.0345C304.897 84.7587 304.167 84.6857 303.462 84.8249C302.757 84.9641 302.109 85.3092 301.6 85.8166C301.091 86.324 300.744 86.9708 300.603 87.6754C300.462 88.38 300.532 89.1106 300.806 89.775C301.08 90.4394 301.545 91.0077 302.142 91.408C302.738 91.8083 303.44 92.0227 304.159 92.0241C304.636 92.025 305.109 91.9318 305.551 91.7499C305.992 91.5679 306.394 91.3007 306.732 90.9636C307.07 90.6265 307.338 90.2261 307.522 89.7852C307.705 89.3443 307.799 88.8716 307.8 88.3941Z" fill="#4665AF"/>
<path d="M335.551 88.4501C335.552 87.7313 335.341 87.0283 334.942 86.43C334.544 85.8316 333.978 85.3647 333.314 85.0884C332.651 84.8121 331.92 84.7387 331.215 84.8776C330.51 85.0164 329.862 85.3613 329.352 85.8685C328.843 86.3758 328.496 87.0226 328.354 87.7273C328.213 88.4319 328.283 89.1627 328.557 89.8273C328.831 90.4918 329.295 91.0603 329.892 91.4607C330.489 91.8612 331.191 92.0757 331.91 92.0771C332.387 92.078 332.86 91.9849 333.301 91.8031C333.742 91.6214 334.144 91.3545 334.482 91.0177C334.82 90.6809 335.088 90.2808 335.272 89.8402C335.455 89.3997 335.55 88.9273 335.551 88.4501Z" fill="#4665AF"/>
<path d="M363.302 88.505C363.303 87.7863 363.092 87.0833 362.693 86.4849C362.295 85.8865 361.729 85.4196 361.065 85.1433C360.402 84.867 359.671 84.7936 358.966 84.9325C358.261 85.0713 357.613 85.4162 357.103 85.9234C356.594 86.4307 356.247 87.0775 356.105 87.7822C355.964 88.4868 356.034 89.2177 356.308 89.8822C356.582 90.5468 357.046 91.1152 357.643 91.5157C358.24 91.9161 358.942 92.1306 359.661 92.132C360.625 92.1336 361.55 91.7524 362.232 91.0723C362.915 90.3922 363.3 89.4687 363.302 88.505Z" fill="#4665AF"/>
<path d="M391.053 88.5611C391.055 87.8423 390.843 87.1391 390.445 86.5404C390.047 85.9418 389.481 85.4746 388.817 85.198C388.154 84.9213 387.423 84.8477 386.718 84.9863C386.013 85.125 385.364 85.4696 384.855 85.9768C384.346 86.484 383.998 87.1308 383.856 87.8355C383.715 88.5402 383.785 89.2712 384.059 89.9358C384.332 90.6005 384.797 91.1691 385.394 91.5696C385.991 91.9702 386.693 92.1847 387.412 92.1861C388.375 92.1879 389.3 91.8071 389.983 91.1274C390.666 90.4476 391.051 89.5245 391.053 88.5611Z" fill="#4665AF"/>
<path d="M418.802 88.6161C418.803 87.8973 418.592 87.1942 418.193 86.5958C417.795 85.9974 417.228 85.5305 416.565 85.2542C415.901 84.9779 415.17 84.9047 414.465 85.0437C413.76 85.1827 413.112 85.5278 412.603 86.0352C412.093 86.5427 411.746 87.1897 411.605 87.8945C411.464 88.5993 411.534 89.3302 411.809 89.9947C412.083 90.6592 412.548 91.2275 413.145 91.6277C413.742 92.028 414.444 92.2421 415.163 92.2431C415.64 92.244 416.113 92.1509 416.554 91.9691C416.995 91.7873 417.396 91.5204 417.734 91.1836C418.072 90.8467 418.34 90.4466 418.523 90.0061C418.707 89.5655 418.801 89.0932 418.802 88.6161Z" fill="#4665AF"/>
<path d="M307.851 62.629C307.852 61.9103 307.641 61.2073 307.242 60.6089C306.844 60.0105 306.278 59.5437 305.614 59.2673C304.951 58.991 304.22 58.9176 303.515 59.0565C302.81 59.1954 302.162 59.5402 301.652 60.0475C301.143 60.5547 300.796 61.2016 300.654 61.9062C300.513 62.6109 300.583 63.3417 300.857 64.0062C301.131 64.6708 301.595 65.2392 302.192 65.6397C302.789 66.0402 303.491 66.2546 304.21 66.256C304.687 66.2571 305.16 66.1641 305.601 65.9824C306.043 65.8006 306.444 65.5337 306.782 65.1969C307.12 64.8601 307.389 64.4599 307.572 64.0193C307.755 63.5787 307.85 63.1063 307.851 62.629Z" fill="#4665AF"/>
<path d="M335.602 62.683C335.603 61.9643 335.392 61.2612 334.993 60.6629C334.595 60.0645 334.029 59.5976 333.365 59.3213C332.702 59.045 331.971 58.9716 331.266 59.1105C330.561 59.2493 329.913 59.5942 329.403 60.1014C328.894 60.6087 328.547 61.2555 328.405 61.9602C328.264 62.6648 328.334 63.3956 328.608 64.0602C328.882 64.7247 329.346 65.2932 329.943 65.6937C330.54 66.0941 331.242 66.3086 331.961 66.31C332.925 66.3116 333.85 65.9304 334.532 65.2503C335.215 64.5701 335.6 63.6467 335.602 62.683Z" fill="#4665AF"/>
<path d="M363.353 62.74C363.354 62.0213 363.143 61.3183 362.744 60.7199C362.346 60.1215 361.78 59.6546 361.116 59.3783C360.453 59.102 359.722 59.0286 359.017 59.1675C358.312 59.3063 357.664 59.6512 357.154 60.1584C356.645 60.6657 356.298 61.3125 356.156 62.0172C356.015 62.7218 356.085 63.4526 356.359 64.1172C356.633 64.7818 357.097 65.3502 357.694 65.7507C358.291 66.1511 358.993 66.3656 359.712 66.367C360.189 66.3679 360.662 66.2748 361.103 66.0931C361.544 65.9113 361.946 65.6444 362.284 65.3076C362.622 64.9708 362.89 64.5707 363.074 64.1301C363.257 63.6896 363.352 63.2172 363.353 62.74Z" fill="#4665AF"/>
<path d="M391.103 62.7941C391.104 62.0753 390.893 61.3723 390.494 60.774C390.096 60.1756 389.53 59.7087 388.866 59.4324C388.203 59.1561 387.472 59.0827 386.767 59.2215C386.062 59.3604 385.414 59.7053 384.904 60.2125C384.395 60.7198 384.048 61.3666 383.906 62.0713C383.765 62.7759 383.835 63.5067 384.109 64.1713C384.383 64.8358 384.847 65.4043 385.444 65.8047C386.041 66.2052 386.743 66.4197 387.462 66.4211C387.939 66.422 388.412 66.3289 388.853 66.1471C389.294 65.9654 389.696 65.6984 390.034 65.3616C390.372 65.0248 390.64 64.6248 390.824 64.1842C391.007 63.7437 391.102 63.2713 391.103 62.7941Z" fill="#4665AF"/>
<path d="M418.855 62.853C418.856 62.1343 418.645 61.4313 418.246 60.8329C417.848 60.2345 417.282 59.7677 416.618 59.4913C415.955 59.215 415.224 59.1416 414.519 59.2805C413.814 59.4194 413.166 59.7642 412.656 60.2715C412.147 60.7787 411.8 61.4256 411.658 62.1302C411.517 62.8349 411.587 63.5657 411.861 64.2302C412.135 64.8948 412.599 65.4632 413.196 65.8637C413.793 66.2642 414.495 66.4786 415.214 66.48C415.691 66.4809 416.164 66.3879 416.605 66.2061C417.046 66.0243 417.448 65.7574 417.786 65.4206C418.124 65.0838 418.392 64.6837 418.576 64.2432C418.759 63.8026 418.854 63.3303 418.855 62.853Z" fill="#4665AF"/>
<path d="M115.376 1074.02C115.376 1068.87 112.143 1066.25 109.546 1064.15C106.989 1062.08 105.54 1060.78 105.54 1058.1C105.54 1055.42 106.988 1054.13 109.546 1052.06C112.146 1049.96 115.376 1047.34 115.376 1042.19C115.376 1037.04 112.143 1034.43 109.546 1032.33C106.989 1030.27 105.54 1028.97 105.54 1026.3C105.54 1023.62 106.988 1022.32 109.546 1020.26C112.146 1018.16 115.376 1015.54 115.376 1010.39C115.376 1005.24 112.142 1002.63 109.542 1000.53C106.988 998.464 105.542 997.164 105.542 994.494C105.542 991.824 106.99 990.523 109.548 988.455C112.148 986.355 115.378 983.741 115.378 978.593C115.378 973.445 112.145 970.832 109.548 968.733C106.991 966.666 105.542 965.364 105.542 962.694C105.549 962.367 105.49 962.042 105.369 961.738C105.249 961.434 105.069 961.157 104.84 960.923C104.611 960.69 104.338 960.504 104.036 960.378C103.734 960.251 103.411 960.186 103.084 960.186C102.756 960.186 102.433 960.251 102.131 960.378C101.829 960.504 101.556 960.69 101.327 960.923C101.098 961.157 100.918 961.434 100.798 961.738C100.677 962.042 100.618 962.367 100.625 962.694C100.625 967.843 103.859 970.457 106.457 972.555C109.013 974.622 110.457 975.922 110.457 978.592C110.457 981.262 109.009 982.563 106.451 984.631C103.851 986.731 100.621 989.345 100.621 994.492C100.621 999.639 103.852 1002.25 106.451 1004.35C109.008 1006.42 110.457 1007.72 110.457 1010.39C110.457 1013.06 109.009 1014.36 106.451 1016.43C103.851 1018.53 100.621 1021.15 100.621 1026.29C100.621 1031.44 103.852 1034.06 106.451 1036.15C109.008 1038.22 110.457 1039.52 110.457 1042.19C110.457 1044.86 109.009 1046.16 106.451 1048.24C103.851 1050.34 100.621 1052.95 100.621 1058.1C100.621 1063.25 103.852 1065.87 106.451 1067.97C109.008 1070.04 110.457 1071.34 110.457 1074.02C110.457 1076.7 109.009 1078 106.451 1080.07C103.851 1082.17 100.621 1084.79 100.621 1089.94C100.634 1090.58 100.899 1091.19 101.358 1091.64C101.818 1092.1 102.436 1092.35 103.08 1092.35C103.723 1092.35 104.341 1092.1 104.801 1091.64C105.26 1091.19 105.525 1090.58 105.538 1089.94C105.538 1087.26 106.986 1085.96 109.544 1083.89C112.143 1081.79 115.376 1079.17 115.376 1074.02Z" fill="#332D66"/>
<path d="M988.44 954.68H991.58L997.34 964.28H997.5L997.34 961.52V954.68H1000.02V969H997.18L991.1 958.86H990.94L991.1 961.62V969H988.44V954.68ZM1007.09 973.64C1006.4 973.64 1005.78 973.547 1005.23 973.36C1004.7 973.187 1004.23 972.953 1003.83 972.66C1003.43 972.38 1003.1 972.067 1002.83 971.72C1002.57 971.373 1002.37 971.027 1002.25 970.68L1004.75 969.68C1004.94 970.2 1005.25 970.6 1005.67 970.88C1006.1 971.173 1006.57 971.32 1007.09 971.32C1007.92 971.32 1008.57 971.06 1009.05 970.54C1009.53 970.033 1009.77 969.32 1009.77 968.4V967.72H1009.61C1009.31 968.147 1008.9 968.487 1008.39 968.74C1007.9 968.98 1007.31 969.1 1006.63 969.1C1006.05 969.1 1005.47 968.98 1004.91 968.74C1004.37 968.5 1003.88 968.16 1003.45 967.72C1003.03 967.267 1002.68 966.727 1002.41 966.1C1002.15 965.473 1002.01 964.773 1002.01 964C1002.01 963.227 1002.15 962.527 1002.41 961.9C1002.68 961.26 1003.03 960.72 1003.45 960.28C1003.88 959.827 1004.37 959.48 1004.91 959.24C1005.47 959 1006.05 958.88 1006.63 958.88C1007.31 958.88 1007.9 959.007 1008.39 959.26C1008.9 959.5 1009.31 959.833 1009.61 960.26H1009.77V959.2H1012.27V968.3C1012.27 969.127 1012.15 969.867 1011.89 970.52C1011.64 971.187 1011.29 971.747 1010.83 972.2C1010.38 972.667 1009.83 973.02 1009.19 973.26C1008.57 973.513 1007.87 973.64 1007.09 973.64ZM1007.19 966.74C1007.51 966.74 1007.83 966.68 1008.13 966.56C1008.45 966.44 1008.73 966.267 1008.97 966.04C1009.21 965.8 1009.41 965.513 1009.55 965.18C1009.7 964.833 1009.77 964.44 1009.77 964C1009.77 963.56 1009.7 963.167 1009.55 962.82C1009.41 962.473 1009.21 962.187 1008.97 961.96C1008.73 961.72 1008.45 961.54 1008.13 961.42C1007.83 961.3 1007.51 961.24 1007.19 961.24C1006.87 961.24 1006.56 961.3 1006.25 961.42C1005.95 961.54 1005.67 961.72 1005.43 961.96C1005.19 962.2 1005 962.493 1004.85 962.84C1004.71 963.173 1004.63 963.56 1004.63 964C1004.63 964.44 1004.71 964.833 1004.85 965.18C1005 965.513 1005.19 965.8 1005.43 966.04C1005.67 966.267 1005.95 966.44 1006.25 966.56C1006.56 966.68 1006.87 966.74 1007.19 966.74ZM1021.19 967.72H1021.03C1020.72 968.213 1020.31 968.607 1019.79 968.9C1019.27 969.18 1018.68 969.32 1018.01 969.32C1016.77 969.32 1015.84 968.94 1015.23 968.18C1014.63 967.42 1014.33 966.407 1014.33 965.14V959.2H1016.95V964.82C1016.95 965.527 1017.1 966.053 1017.41 966.4C1017.73 966.733 1018.19 966.9 1018.79 966.9C1019.15 966.9 1019.46 966.827 1019.73 966.68C1020.01 966.52 1020.24 966.313 1020.43 966.06C1020.63 965.793 1020.78 965.487 1020.87 965.14C1020.98 964.78 1021.03 964.4 1021.03 964V959.2H1023.65V969H1021.19V967.72ZM1028.97 968.52L1024.85 959.2H1027.83L1030.31 965.14H1030.45L1032.83 959.2H1035.75L1029.61 973.32H1026.79L1028.97 968.52ZM1045.84 966.64C1045.38 967.44 1044.77 968.087 1044 968.58C1043.24 969.073 1042.3 969.32 1041.2 969.32C1040.45 969.32 1039.76 969.193 1039.12 968.94C1038.49 968.673 1037.94 968.307 1037.48 967.84C1037.01 967.373 1036.64 966.827 1036.38 966.2C1036.12 965.56 1036 964.86 1036 964.1C1036 963.393 1036.12 962.727 1036.38 962.1C1036.63 961.46 1036.98 960.907 1037.44 960.44C1037.89 959.96 1038.42 959.58 1039.04 959.3C1039.66 959.02 1040.35 958.88 1041.1 958.88C1041.88 958.88 1042.58 959.013 1043.2 959.28C1043.81 959.533 1044.32 959.893 1044.74 960.36C1045.15 960.813 1045.46 961.353 1045.68 961.98C1045.89 962.607 1046 963.287 1046 964.02C1046 964.113 1046 964.193 1046 964.26C1045.98 964.34 1045.98 964.413 1045.98 964.48C1045.96 964.547 1045.96 964.62 1045.96 964.7H1038.58C1038.63 965.1 1038.74 965.447 1038.9 965.74C1039.07 966.02 1039.28 966.26 1039.52 966.46C1039.77 966.647 1040.04 966.787 1040.34 966.88C1040.63 966.96 1040.93 967 1041.24 967C1041.84 967 1042.33 966.867 1042.72 966.6C1043.12 966.32 1043.43 965.973 1043.66 965.56L1045.84 966.64ZM1043.46 962.84C1043.44 962.667 1043.38 962.473 1043.28 962.26C1043.18 962.047 1043.04 961.847 1042.84 961.66C1042.65 961.473 1042.41 961.32 1042.12 961.2C1041.84 961.08 1041.5 961.02 1041.1 961.02C1040.54 961.02 1040.04 961.18 1039.62 961.5C1039.19 961.82 1038.89 962.267 1038.72 962.84H1043.46ZM1050.13 960.48H1050.29C1050.6 959.987 1051.01 959.6 1051.53 959.32C1052.05 959.027 1052.64 958.88 1053.31 958.88C1053.92 958.88 1054.46 958.98 1054.93 959.18C1055.4 959.38 1055.78 959.667 1056.07 960.04C1056.38 960.4 1056.6 960.84 1056.75 961.36C1056.91 961.867 1056.99 962.433 1056.99 963.06V969H1054.37V963.38C1054.37 962.673 1054.21 962.153 1053.89 961.82C1053.58 961.473 1053.13 961.3 1052.53 961.3C1052.17 961.3 1051.85 961.38 1051.57 961.54C1051.3 961.687 1051.07 961.893 1050.87 962.16C1050.68 962.413 1050.54 962.72 1050.43 963.08C1050.34 963.427 1050.29 963.8 1050.29 964.2V969H1047.67V959.2H1050.13V960.48ZM1063.87 954.68H1066.57V960.4H1072.59V954.68H1075.29V969H1072.59V962.96H1066.57V969H1063.87V954.68ZM1084.43 967.72H1084.27C1083.96 968.213 1083.55 968.607 1083.03 968.9C1082.51 969.18 1081.92 969.32 1081.25 969.32C1080.01 969.32 1079.08 968.94 1078.47 968.18C1077.87 967.42 1077.57 966.407 1077.57 965.14V959.2H1080.19V964.82C1080.19 965.527 1080.34 966.053 1080.65 966.4C1080.97 966.733 1081.43 966.9 1082.03 966.9C1082.39 966.9 1082.7 966.827 1082.97 966.68C1083.25 966.52 1083.48 966.313 1083.67 966.06C1083.87 965.793 1084.02 965.487 1084.11 965.14C1084.22 964.78 1084.27 964.4 1084.27 964V959.2H1086.89V969H1084.43V967.72ZM1095.92 967.72H1095.76C1095.45 968.213 1095.04 968.607 1094.52 968.9C1094 969.18 1093.4 969.32 1092.74 969.32C1091.5 969.32 1090.57 968.94 1089.96 968.18C1089.36 967.42 1089.06 966.407 1089.06 965.14V959.2H1091.68V964.82C1091.68 965.527 1091.83 966.053 1092.14 966.4C1092.46 966.733 1092.92 966.9 1093.52 966.9C1093.88 966.9 1094.19 966.827 1094.46 966.68C1094.74 966.52 1094.97 966.313 1095.16 966.06C1095.36 965.793 1095.5 965.487 1095.6 965.14C1095.7 964.78 1095.76 964.4 1095.76 964V959.2H1098.38V969H1095.92V967.72ZM1105.33 954.68H1108.47L1114.23 964.28H1114.39L1114.23 961.52V954.68H1116.91V969H1114.07L1107.99 958.86H1107.83L1107.99 961.62V969H1105.33V954.68ZM1123.99 973.64C1123.29 973.64 1122.67 973.547 1122.13 973.36C1121.59 973.187 1121.13 972.953 1120.73 972.66C1120.33 972.38 1119.99 972.067 1119.73 971.72C1119.46 971.373 1119.27 971.027 1119.15 970.68L1121.65 969.68C1121.83 970.2 1122.14 970.6 1122.57 970.88C1122.99 971.173 1123.47 971.32 1123.99 971.32C1124.81 971.32 1125.47 971.06 1125.95 970.54C1126.43 970.033 1126.67 969.32 1126.67 968.4V967.72H1126.51C1126.2 968.147 1125.79 968.487 1125.29 968.74C1124.79 968.98 1124.21 969.1 1123.53 969.1C1122.94 969.1 1122.37 968.98 1121.81 968.74C1121.26 968.5 1120.77 968.16 1120.35 967.72C1119.92 967.267 1119.57 966.727 1119.31 966.1C1119.04 965.473 1118.91 964.773 1118.91 964C1118.91 963.227 1119.04 962.527 1119.31 961.9C1119.57 961.26 1119.92 960.72 1120.35 960.28C1120.77 959.827 1121.26 959.48 1121.81 959.24C1122.37 959 1122.94 958.88 1123.53 958.88C1124.21 958.88 1124.79 959.007 1125.29 959.26C1125.79 959.5 1126.2 959.833 1126.51 960.26H1126.67V959.2H1129.17V968.3C1129.17 969.127 1129.04 969.867 1128.79 970.52C1128.53 971.187 1128.18 971.747 1127.73 972.2C1127.27 972.667 1126.73 973.02 1126.09 973.26C1125.46 973.513 1124.76 973.64 1123.99 973.64ZM1124.09 966.74C1124.41 966.74 1124.72 966.68 1125.03 966.56C1125.35 966.44 1125.63 966.267 1125.87 966.04C1126.11 965.8 1126.3 965.513 1126.45 965.18C1126.59 964.833 1126.67 964.44 1126.67 964C1126.67 963.56 1126.59 963.167 1126.45 962.82C1126.3 962.473 1126.11 962.187 1125.87 961.96C1125.63 961.72 1125.35 961.54 1125.03 961.42C1124.72 961.3 1124.41 961.24 1124.09 961.24C1123.77 961.24 1123.45 961.3 1123.15 961.42C1122.84 961.54 1122.57 961.72 1122.33 961.96C1122.09 962.2 1121.89 962.493 1121.75 962.84C1121.6 963.173 1121.53 963.56 1121.53 964C1121.53 964.44 1121.6 964.833 1121.75 965.18C1121.89 965.513 1122.09 965.8 1122.33 966.04C1122.57 966.267 1122.84 966.44 1123.15 966.56C1123.45 966.68 1123.77 966.74 1124.09 966.74ZM1138.08 967.72H1137.92C1137.62 968.213 1137.2 968.607 1136.68 968.9C1136.16 969.18 1135.57 969.32 1134.9 969.32C1133.66 969.32 1132.74 968.94 1132.12 968.18C1131.52 967.42 1131.22 966.407 1131.22 965.14V959.2H1133.84V964.82C1133.84 965.527 1134 966.053 1134.3 966.4C1134.62 966.733 1135.08 966.9 1135.68 966.9C1136.04 966.9 1136.36 966.827 1136.62 966.68C1136.9 966.52 1137.14 966.313 1137.32 966.06C1137.52 965.793 1137.67 965.487 1137.76 965.14C1137.87 964.78 1137.92 964.4 1137.92 964V959.2H1140.54V969H1138.08V967.72ZM1145.87 968.52L1141.75 959.2H1144.73L1147.21 965.14H1147.35L1149.73 959.2H1152.65L1146.51 973.32H1143.69L1145.87 968.52ZM1162.73 966.64C1162.28 967.44 1161.67 968.087 1160.89 968.58C1160.13 969.073 1159.2 969.32 1158.09 969.32C1157.35 969.32 1156.65 969.193 1156.01 968.94C1155.39 968.673 1154.84 968.307 1154.37 967.84C1153.91 967.373 1153.54 966.827 1153.27 966.2C1153.02 965.56 1152.89 964.86 1152.89 964.1C1152.89 963.393 1153.02 962.727 1153.27 962.1C1153.53 961.46 1153.88 960.907 1154.33 960.44C1154.79 959.96 1155.32 959.58 1155.93 959.3C1156.56 959.02 1157.25 958.88 1157.99 958.88C1158.78 958.88 1159.48 959.013 1160.09 959.28C1160.71 959.533 1161.22 959.893 1161.63 960.36C1162.05 960.813 1162.36 961.353 1162.57 961.98C1162.79 962.607 1162.89 963.287 1162.89 964.02C1162.89 964.113 1162.89 964.193 1162.89 964.26C1162.88 964.34 1162.87 964.413 1162.87 964.48C1162.86 964.547 1162.85 964.62 1162.85 964.7H1155.47C1155.53 965.1 1155.63 965.447 1155.79 965.74C1155.97 966.02 1156.17 966.26 1156.41 966.46C1156.67 966.647 1156.94 966.787 1157.23 966.88C1157.53 966.96 1157.83 967 1158.13 967C1158.73 967 1159.23 966.867 1159.61 966.6C1160.01 966.32 1160.33 965.973 1160.55 965.56L1162.73 966.64ZM1160.35 962.84C1160.34 962.667 1160.28 962.473 1160.17 962.26C1160.08 962.047 1159.93 961.847 1159.73 961.66C1159.55 961.473 1159.31 961.32 1159.01 961.2C1158.73 961.08 1158.39 961.02 1157.99 961.02C1157.43 961.02 1156.94 961.18 1156.51 961.5C1156.09 961.82 1155.79 962.267 1155.61 962.84H1160.35ZM1167.03 960.48H1167.19C1167.49 959.987 1167.91 959.6 1168.43 959.32C1168.95 959.027 1169.54 958.88 1170.21 958.88C1170.82 958.88 1171.36 958.98 1171.83 959.18C1172.29 959.38 1172.67 959.667 1172.97 960.04C1173.27 960.4 1173.5 960.84 1173.65 961.36C1173.81 961.867 1173.89 962.433 1173.89 963.06V969H1171.27V963.38C1171.27 962.673 1171.11 962.153 1170.79 961.82C1170.48 961.473 1170.03 961.3 1169.43 961.3C1169.07 961.3 1168.75 961.38 1168.47 961.54C1168.2 961.687 1167.97 961.893 1167.77 962.16C1167.58 962.413 1167.43 962.72 1167.33 963.08C1167.23 963.427 1167.19 963.8 1167.19 964.2V969H1164.57V959.2H1167.03V960.48ZM1183.58 962.34L1178.76 954.68H1181.98L1184.84 959.42H1185L1187.76 954.68H1191.02L1186.28 962.34V969H1183.58V962.34ZM1196.77 961.64H1203.55V963.96H1196.77V961.64ZM1216.92 961.14H1223.94C1223.98 961.3 1224.01 961.493 1224.04 961.72C1224.07 961.947 1224.08 962.173 1224.08 962.4C1224.08 963.32 1223.94 964.187 1223.66 965C1223.38 965.813 1222.94 966.54 1222.34 967.18C1221.7 967.86 1220.93 968.387 1220.04 968.76C1219.15 969.133 1218.13 969.32 1216.98 969.32C1215.94 969.32 1214.96 969.133 1214.04 968.76C1213.12 968.387 1212.32 967.867 1211.64 967.2C1210.96 966.533 1210.42 965.747 1210.02 964.84C1209.62 963.92 1209.42 962.92 1209.42 961.84C1209.42 960.76 1209.62 959.767 1210.02 958.86C1210.42 957.94 1210.96 957.147 1211.64 956.48C1212.32 955.813 1213.12 955.293 1214.04 954.92C1214.96 954.547 1215.94 954.36 1216.98 954.36C1218.14 954.36 1219.17 954.56 1220.08 954.96C1221 955.36 1221.79 955.913 1222.44 956.62L1220.58 958.44C1220.11 957.947 1219.59 957.573 1219.02 957.32C1218.45 957.053 1217.76 956.92 1216.96 956.92C1216.31 956.92 1215.69 957.04 1215.1 957.28C1214.51 957.507 1214 957.833 1213.56 958.26C1213.12 958.687 1212.77 959.207 1212.5 959.82C1212.25 960.42 1212.12 961.093 1212.12 961.84C1212.12 962.587 1212.25 963.267 1212.5 963.88C1212.77 964.48 1213.12 964.993 1213.56 965.42C1214.01 965.847 1214.53 966.18 1215.12 966.42C1215.71 966.647 1216.33 966.76 1217 966.76C1217.76 966.76 1218.4 966.653 1218.92 966.44C1219.45 966.213 1219.91 965.927 1220.28 965.58C1220.55 965.34 1220.77 965.04 1220.96 964.68C1221.16 964.307 1221.31 963.893 1221.42 963.44H1216.92V961.14ZM1226.31 954.68H1231.15C1232.28 954.68 1233.3 954.853 1234.21 955.2C1235.12 955.547 1235.89 956.04 1236.53 956.68C1237.17 957.307 1237.66 958.06 1237.99 958.94C1238.34 959.82 1238.51 960.787 1238.51 961.84C1238.51 962.907 1238.34 963.88 1237.99 964.76C1237.66 965.64 1237.17 966.393 1236.53 967.02C1235.89 967.647 1235.12 968.133 1234.21 968.48C1233.3 968.827 1232.28 969 1231.15 969H1226.31V954.68ZM1231.03 966.44C1231.82 966.44 1232.51 966.333 1233.11 966.12C1233.71 965.893 1234.21 965.58 1234.61 965.18C1235.01 964.78 1235.31 964.3 1235.51 963.74C1235.71 963.167 1235.81 962.533 1235.81 961.84C1235.81 961.147 1235.71 960.52 1235.51 959.96C1235.31 959.387 1235.01 958.9 1234.61 958.5C1234.21 958.1 1233.71 957.793 1233.11 957.58C1232.51 957.353 1231.82 957.24 1231.03 957.24H1229.01V966.44H1231.03ZM1245.07 969.32C1244.45 969.32 1243.87 969.233 1243.31 969.06C1242.75 968.887 1242.23 968.627 1241.77 968.28C1241.3 967.933 1240.89 967.513 1240.55 967.02C1240.2 966.513 1239.93 965.927 1239.73 965.26L1242.27 964.26C1242.45 964.98 1242.78 965.58 1243.25 966.06C1243.71 966.527 1244.33 966.76 1245.09 966.76C1245.37 966.76 1245.63 966.727 1245.89 966.66C1246.15 966.58 1246.39 966.473 1246.59 966.34C1246.8 966.193 1246.97 966.013 1247.09 965.8C1247.21 965.587 1247.27 965.34 1247.27 965.06C1247.27 964.793 1247.22 964.553 1247.13 964.34C1247.03 964.127 1246.87 963.927 1246.65 963.74C1246.43 963.553 1246.15 963.373 1245.79 963.2C1245.44 963.027 1245.01 962.847 1244.49 962.66L1243.61 962.34C1243.22 962.207 1242.83 962.027 1242.43 961.8C1242.04 961.573 1241.69 961.3 1241.37 960.98C1241.05 960.66 1240.78 960.287 1240.57 959.86C1240.37 959.42 1240.27 958.927 1240.27 958.38C1240.27 957.82 1240.37 957.3 1240.59 956.82C1240.81 956.327 1241.13 955.9 1241.53 955.54C1241.94 955.167 1242.43 954.88 1242.99 954.68C1243.56 954.467 1244.19 954.36 1244.89 954.36C1245.61 954.36 1246.23 954.46 1246.75 954.66C1247.28 954.847 1247.73 955.093 1248.09 955.4C1248.46 955.693 1248.76 956.02 1248.99 956.38C1249.21 956.74 1249.38 957.08 1249.49 957.4L1247.11 958.4C1246.97 958 1246.73 957.64 1246.37 957.32C1246.02 957 1245.54 956.84 1244.93 956.84C1244.34 956.84 1243.85 956.98 1243.47 957.26C1243.08 957.527 1242.89 957.88 1242.89 958.32C1242.89 958.747 1243.07 959.113 1243.45 959.42C1243.82 959.713 1244.41 960 1245.23 960.28L1246.13 960.58C1246.7 960.78 1247.22 961.013 1247.69 961.28C1248.17 961.533 1248.57 961.84 1248.91 962.2C1249.25 962.56 1249.51 962.973 1249.69 963.44C1249.87 963.893 1249.97 964.42 1249.97 965.02C1249.97 965.767 1249.81 966.413 1249.51 966.96C1249.21 967.493 1248.83 967.933 1248.37 968.28C1247.9 968.627 1247.37 968.887 1246.79 969.06C1246.2 969.233 1245.63 969.32 1245.07 969.32ZM1264.71 966.7C1264 967.553 1263.17 968.207 1262.21 968.66C1261.25 969.1 1260.18 969.32 1258.99 969.32C1257.92 969.32 1256.93 969.127 1256.01 968.74C1255.1 968.353 1254.32 967.827 1253.65 967.16C1252.98 966.493 1252.46 965.707 1252.07 964.8C1251.68 963.88 1251.49 962.893 1251.49 961.84C1251.49 960.787 1251.68 959.807 1252.07 958.9C1252.46 957.98 1252.98 957.187 1253.65 956.52C1254.32 955.853 1255.1 955.327 1256.01 954.94C1256.93 954.553 1257.92 954.36 1258.99 954.36C1260.14 954.36 1261.14 954.56 1262.01 954.96C1262.89 955.36 1263.67 955.94 1264.35 956.7L1262.45 958.54C1262.02 958.047 1261.53 957.653 1260.97 957.36C1260.42 957.067 1259.77 956.92 1259.01 956.92C1258.34 956.92 1257.72 957.04 1257.13 957.28C1256.54 957.507 1256.03 957.833 1255.59 958.26C1255.16 958.687 1254.82 959.207 1254.57 959.82C1254.32 960.42 1254.19 961.093 1254.19 961.84C1254.19 962.587 1254.32 963.267 1254.57 963.88C1254.82 964.48 1255.16 964.993 1255.59 965.42C1256.03 965.847 1256.54 966.18 1257.13 966.42C1257.72 966.647 1258.34 966.76 1259.01 966.76C1259.81 966.76 1260.52 966.6 1261.13 966.28C1261.76 965.947 1262.31 965.48 1262.79 964.88L1264.71 966.7ZM1271.27 954.68H1273.97V966.44H1280.03V969H1271.27V954.68ZM1290.92 966.64C1290.46 967.44 1289.85 968.087 1289.08 968.58C1288.32 969.073 1287.38 969.32 1286.28 969.32C1285.53 969.32 1284.84 969.193 1284.2 968.94C1283.57 968.673 1283.02 968.307 1282.56 967.84C1282.09 967.373 1281.72 966.827 1281.46 966.2C1281.2 965.56 1281.08 964.86 1281.08 964.1C1281.08 963.393 1281.2 962.727 1281.46 962.1C1281.71 961.46 1282.06 960.907 1282.52 960.44C1282.97 959.96 1283.5 959.58 1284.12 959.3C1284.74 959.02 1285.43 958.88 1286.18 958.88C1286.96 958.88 1287.66 959.013 1288.28 959.28C1288.89 959.533 1289.4 959.893 1289.82 960.36C1290.23 960.813 1290.54 961.353 1290.76 961.98C1290.97 962.607 1291.08 963.287 1291.08 964.02C1291.08 964.113 1291.08 964.193 1291.08 964.26C1291.06 964.34 1291.06 964.413 1291.06 964.48C1291.04 964.547 1291.04 964.62 1291.04 964.7H1283.66C1283.71 965.1 1283.82 965.447 1283.98 965.74C1284.15 966.02 1284.36 966.26 1284.6 966.46C1284.85 966.647 1285.12 966.787 1285.42 966.88C1285.71 966.96 1286.01 967 1286.32 967C1286.92 967 1287.41 966.867 1287.8 966.6C1288.2 966.32 1288.51 965.973 1288.74 965.56L1290.92 966.64ZM1288.54 962.84C1288.52 962.667 1288.46 962.473 1288.36 962.26C1288.26 962.047 1288.12 961.847 1287.92 961.66C1287.73 961.473 1287.49 961.32 1287.2 961.2C1286.92 961.08 1286.58 961.02 1286.18 961.02C1285.62 961.02 1285.12 961.18 1284.7 961.5C1284.27 961.82 1283.97 962.267 1283.8 962.84H1288.54ZM1298.89 967.96H1298.73C1298.42 968.333 1298.05 968.653 1297.61 968.92C1297.18 969.187 1296.63 969.32 1295.95 969.32C1295.44 969.32 1294.96 969.233 1294.51 969.06C1294.07 968.9 1293.68 968.673 1293.35 968.38C1293.01 968.087 1292.75 967.733 1292.57 967.32C1292.38 966.907 1292.29 966.453 1292.29 965.96C1292.29 965.453 1292.39 965 1292.59 964.6C1292.79 964.187 1293.07 963.833 1293.43 963.54C1293.79 963.247 1294.21 963.027 1294.69 962.88C1295.18 962.72 1295.71 962.64 1296.29 962.64C1296.93 962.64 1297.45 962.693 1297.87 962.8C1298.28 962.893 1298.62 962.993 1298.89 963.1V962.8C1298.89 962.28 1298.68 961.853 1298.27 961.52C1297.85 961.173 1297.34 961 1296.73 961C1295.82 961 1295.05 961.38 1294.43 962.14L1292.53 960.84C1293.57 959.533 1294.99 958.88 1296.79 958.88C1298.31 958.88 1299.47 959.24 1300.27 959.96C1301.07 960.667 1301.47 961.72 1301.47 963.12V969H1298.89V967.96ZM1298.89 965.02C1298.58 964.873 1298.26 964.76 1297.93 964.68C1297.61 964.587 1297.25 964.54 1296.87 964.54C1296.24 964.54 1295.75 964.68 1295.41 964.96C1295.07 965.227 1294.91 965.56 1294.91 965.96C1294.91 966.36 1295.07 966.68 1295.39 966.92C1295.72 967.16 1296.1 967.28 1296.53 967.28C1296.87 967.28 1297.19 967.22 1297.49 967.1C1297.78 966.967 1298.03 966.8 1298.23 966.6C1298.44 966.387 1298.6 966.147 1298.71 965.88C1298.83 965.6 1298.89 965.313 1298.89 965.02ZM1310.75 967.82H1310.59C1310.35 968.233 1309.98 968.587 1309.47 968.88C1308.97 969.173 1308.34 969.32 1307.59 969.32C1306.97 969.32 1306.37 969.193 1305.79 968.94C1305.23 968.673 1304.73 968.313 1304.29 967.86C1303.87 967.393 1303.53 966.84 1303.27 966.2C1303.02 965.56 1302.89 964.86 1302.89 964.1C1302.89 963.34 1303.02 962.64 1303.27 962C1303.53 961.36 1303.87 960.813 1304.29 960.36C1304.73 959.893 1305.23 959.533 1305.79 959.28C1306.37 959.013 1306.97 958.88 1307.59 958.88C1308.34 958.88 1308.97 959.027 1309.47 959.32C1309.98 959.613 1310.35 959.967 1310.59 960.38H1310.75L1310.59 958.98V954.68H1313.21V969H1310.75V967.82ZM1308.13 966.9C1308.48 966.9 1308.81 966.84 1309.11 966.72C1309.43 966.587 1309.71 966.4 1309.95 966.16C1310.19 965.92 1310.39 965.627 1310.53 965.28C1310.68 964.933 1310.75 964.54 1310.75 964.1C1310.75 963.66 1310.68 963.267 1310.53 962.92C1310.39 962.573 1310.19 962.28 1309.95 962.04C1309.71 961.8 1309.43 961.62 1309.11 961.5C1308.81 961.367 1308.48 961.3 1308.13 961.3C1307.79 961.3 1307.45 961.367 1307.13 961.5C1306.83 961.633 1306.55 961.82 1306.31 962.06C1306.07 962.3 1305.88 962.593 1305.73 962.94C1305.59 963.287 1305.51 963.673 1305.51 964.1C1305.51 964.527 1305.59 964.913 1305.73 965.26C1305.88 965.607 1306.07 965.9 1306.31 966.14C1306.55 966.38 1306.83 966.567 1307.13 966.7C1307.45 966.833 1307.79 966.9 1308.13 966.9ZM1319.64 969V966.62C1320.43 965.847 1321.15 965.127 1321.82 964.46C1322.1 964.18 1322.39 963.893 1322.68 963.6C1322.97 963.307 1323.25 963.033 1323.5 962.78C1323.75 962.527 1323.98 962.3 1324.18 962.1C1324.38 961.887 1324.53 961.72 1324.64 961.6C1324.85 961.347 1325.04 961.12 1325.2 960.92C1325.37 960.72 1325.51 960.527 1325.6 960.34C1325.71 960.14 1325.79 959.947 1325.84 959.76C1325.89 959.56 1325.92 959.347 1325.92 959.12C1325.92 958.68 1325.75 958.3 1325.4 957.98C1325.05 957.647 1324.58 957.48 1323.98 957.48C1323.38 957.48 1322.91 957.653 1322.58 958C1322.25 958.333 1322.02 958.713 1321.9 959.14L1319.52 958.16C1319.63 957.8 1319.8 957.433 1320.04 957.06C1320.28 956.673 1320.59 956.333 1320.96 956.04C1321.33 955.733 1321.77 955.487 1322.28 955.3C1322.8 955.1 1323.38 955 1324.02 955C1324.71 955 1325.34 955.107 1325.9 955.32C1326.46 955.52 1326.93 955.8 1327.32 956.16C1327.71 956.52 1328.01 956.947 1328.22 957.44C1328.43 957.92 1328.54 958.44 1328.54 959C1328.54 959.853 1328.33 960.64 1327.9 961.36C1327.49 962.067 1326.98 962.727 1326.38 963.34L1324.66 965.06C1324.21 965.513 1323.69 966.02 1323.12 966.58L1323.2 966.7H1328.74V969H1319.64ZM1336.24 969.32C1335.36 969.32 1334.56 969.14 1333.86 968.78C1333.15 968.407 1332.54 967.9 1332.04 967.26C1331.54 966.62 1331.16 965.867 1330.9 965C1330.63 964.12 1330.5 963.173 1330.5 962.16C1330.5 961.147 1330.63 960.207 1330.9 959.34C1331.16 958.46 1331.54 957.7 1332.04 957.06C1332.54 956.42 1333.15 955.92 1333.86 955.56C1334.56 955.187 1335.36 955 1336.24 955C1337.12 955 1337.91 955.187 1338.62 955.56C1339.32 955.92 1339.92 956.42 1340.42 957.06C1340.92 957.7 1341.31 958.46 1341.58 959.34C1341.84 960.207 1341.98 961.147 1341.98 962.16C1341.98 963.173 1341.84 964.12 1341.58 965C1341.31 965.867 1340.92 966.62 1340.42 967.26C1339.92 967.9 1339.32 968.407 1338.62 968.78C1337.91 969.14 1337.12 969.32 1336.24 969.32ZM1336.24 966.84C1336.72 966.84 1337.15 966.727 1337.54 966.5C1337.92 966.26 1338.25 965.933 1338.52 965.52C1338.8 965.093 1339 964.593 1339.14 964.02C1339.28 963.447 1339.36 962.827 1339.36 962.16C1339.36 961.48 1339.28 960.86 1339.14 960.3C1339 959.727 1338.8 959.233 1338.52 958.82C1338.25 958.393 1337.92 958.067 1337.54 957.84C1337.15 957.6 1336.72 957.48 1336.24 957.48C1335.74 957.48 1335.3 957.6 1334.92 957.84C1334.53 958.067 1334.2 958.393 1333.94 958.82C1333.67 959.233 1333.46 959.727 1333.32 960.3C1333.18 960.86 1333.12 961.48 1333.12 962.16C1333.12 962.827 1333.18 963.447 1333.32 964.02C1333.46 964.593 1333.67 965.093 1333.94 965.52C1334.2 965.933 1334.53 966.26 1334.92 966.5C1335.3 966.727 1335.74 966.84 1336.24 966.84ZM1343.58 969V966.62C1344.37 965.847 1345.1 965.127 1345.76 964.46C1346.04 964.18 1346.33 963.893 1346.62 963.6C1346.92 963.307 1347.19 963.033 1347.44 962.78C1347.7 962.527 1347.92 962.3 1348.12 962.1C1348.32 961.887 1348.48 961.72 1348.58 961.6C1348.8 961.347 1348.98 961.12 1349.14 960.92C1349.32 960.72 1349.45 960.527 1349.54 960.34C1349.65 960.14 1349.73 959.947 1349.78 959.76C1349.84 959.56 1349.86 959.347 1349.86 959.12C1349.86 958.68 1349.69 958.3 1349.34 957.98C1349 957.647 1348.52 957.48 1347.92 957.48C1347.32 957.48 1346.86 957.653 1346.52 958C1346.19 958.333 1345.96 958.713 1345.84 959.14L1343.46 958.16C1343.57 957.8 1343.74 957.433 1343.98 957.06C1344.22 956.673 1344.53 956.333 1344.9 956.04C1345.28 955.733 1345.72 955.487 1346.22 955.3C1346.74 955.1 1347.32 955 1347.96 955C1348.66 955 1349.28 955.107 1349.84 955.32C1350.4 955.52 1350.88 955.8 1351.26 956.16C1351.65 956.52 1351.95 956.947 1352.16 957.44C1352.38 957.92 1352.48 958.44 1352.48 959C1352.48 959.853 1352.27 960.64 1351.84 961.36C1351.43 962.067 1350.92 962.727 1350.32 963.34L1348.6 965.06C1348.15 965.513 1347.64 966.02 1347.06 966.58L1347.14 966.7H1352.68V969H1343.58ZM1360.18 969.32C1359.3 969.32 1358.51 969.14 1357.8 968.78C1357.1 968.407 1356.49 967.9 1355.98 967.26C1355.49 966.62 1355.11 965.867 1354.84 965C1354.58 964.12 1354.44 963.173 1354.44 962.16C1354.44 961.147 1354.58 960.207 1354.84 959.34C1355.11 958.46 1355.49 957.7 1355.98 957.06C1356.49 956.42 1357.1 955.92 1357.8 955.56C1358.51 955.187 1359.3 955 1360.18 955C1361.06 955 1361.86 955.187 1362.56 955.56C1363.27 955.92 1363.87 956.42 1364.36 957.06C1364.87 957.7 1365.26 958.46 1365.52 959.34C1365.79 960.207 1365.92 961.147 1365.92 962.16C1365.92 963.173 1365.79 964.12 1365.52 965C1365.26 965.867 1364.87 966.62 1364.36 967.26C1363.87 967.9 1363.27 968.407 1362.56 968.78C1361.86 969.14 1361.06 969.32 1360.18 969.32ZM1360.18 966.84C1360.66 966.84 1361.1 966.727 1361.48 966.5C1361.87 966.26 1362.2 965.933 1362.46 965.52C1362.74 965.093 1362.95 964.593 1363.08 964.02C1363.23 963.447 1363.3 962.827 1363.3 962.16C1363.3 961.48 1363.23 960.86 1363.08 960.3C1362.95 959.727 1362.74 959.233 1362.46 958.82C1362.2 958.393 1361.87 958.067 1361.48 957.84C1361.1 957.6 1360.66 957.48 1360.18 957.48C1359.69 957.48 1359.25 957.6 1358.86 957.84C1358.48 958.067 1358.15 958.393 1357.88 958.82C1357.62 959.233 1357.41 959.727 1357.26 960.3C1357.13 960.86 1357.06 961.48 1357.06 962.16C1357.06 962.827 1357.13 963.447 1357.26 964.02C1357.41 964.593 1357.62 965.093 1357.88 965.52C1358.15 965.933 1358.48 966.26 1358.86 966.5C1359.25 966.727 1359.69 966.84 1360.18 966.84ZM1372.32 961.64H1379.1V963.96H1372.32V961.64ZM1385.54 969V966.62C1386.32 965.847 1387.05 965.127 1387.72 964.46C1388 964.18 1388.28 963.893 1388.58 963.6C1388.87 963.307 1389.14 963.033 1389.4 962.78C1389.65 962.527 1389.88 962.3 1390.08 962.1C1390.28 961.887 1390.43 961.72 1390.54 961.6C1390.75 961.347 1390.94 961.12 1391.1 960.92C1391.27 960.72 1391.4 960.527 1391.5 960.34C1391.6 960.14 1391.68 959.947 1391.74 959.76C1391.79 959.56 1391.82 959.347 1391.82 959.12C1391.82 958.68 1391.64 958.3 1391.3 957.98C1390.95 957.647 1390.48 957.48 1389.88 957.48C1389.28 957.48 1388.81 957.653 1388.48 958C1388.14 958.333 1387.92 958.713 1387.8 959.14L1385.42 958.16C1385.52 957.8 1385.7 957.433 1385.94 957.06C1386.18 956.673 1386.48 956.333 1386.86 956.04C1387.23 955.733 1387.67 955.487 1388.18 955.3C1388.7 955.1 1389.28 955 1389.92 955C1390.61 955 1391.24 955.107 1391.8 955.32C1392.36 955.52 1392.83 955.8 1393.22 956.16C1393.6 956.52 1393.9 956.947 1394.12 957.44C1394.33 957.92 1394.44 958.44 1394.44 959C1394.44 959.853 1394.22 960.64 1393.8 961.36C1393.38 962.067 1392.88 962.727 1392.28 963.34L1390.56 965.06C1390.1 965.513 1389.59 966.02 1389.02 966.58L1389.1 966.7H1394.64V969H1385.54ZM1402.14 969.32C1401.26 969.32 1400.46 969.14 1399.76 968.78C1399.05 968.407 1398.44 967.9 1397.94 967.26C1397.44 966.62 1397.06 965.867 1396.8 965C1396.53 964.12 1396.4 963.173 1396.4 962.16C1396.4 961.147 1396.53 960.207 1396.8 959.34C1397.06 958.46 1397.44 957.7 1397.94 957.06C1398.44 956.42 1399.05 955.92 1399.76 955.56C1400.46 955.187 1401.26 955 1402.14 955C1403.02 955 1403.81 955.187 1404.52 955.56C1405.22 955.92 1405.82 956.42 1406.32 957.06C1406.82 957.7 1407.21 958.46 1407.48 959.34C1407.74 960.207 1407.88 961.147 1407.88 962.16C1407.88 963.173 1407.74 964.12 1407.48 965C1407.21 965.867 1406.82 966.62 1406.32 967.26C1405.82 967.9 1405.22 968.407 1404.52 968.78C1403.81 969.14 1403.02 969.32 1402.14 969.32ZM1402.14 966.84C1402.62 966.84 1403.05 966.727 1403.44 966.5C1403.82 966.26 1404.15 965.933 1404.42 965.52C1404.7 965.093 1404.9 964.593 1405.04 964.02C1405.18 963.447 1405.26 962.827 1405.26 962.16C1405.26 961.48 1405.18 960.86 1405.04 960.3C1404.9 959.727 1404.7 959.233 1404.42 958.82C1404.15 958.393 1403.82 958.067 1403.44 957.84C1403.05 957.6 1402.62 957.48 1402.14 957.48C1401.64 957.48 1401.2 957.6 1400.82 957.84C1400.43 958.067 1400.1 958.393 1399.84 958.82C1399.57 959.233 1399.36 959.727 1399.22 960.3C1399.08 960.86 1399.02 961.48 1399.02 962.16C1399.02 962.827 1399.08 963.447 1399.22 964.02C1399.36 964.593 1399.57 965.093 1399.84 965.52C1400.1 965.933 1400.43 966.26 1400.82 966.5C1401.2 966.727 1401.64 966.84 1402.14 966.84ZM1409.48 969V966.62C1410.27 965.847 1411 965.127 1411.66 964.46C1411.94 964.18 1412.23 963.893 1412.52 963.6C1412.82 963.307 1413.09 963.033 1413.34 962.78C1413.6 962.527 1413.82 962.3 1414.02 962.1C1414.22 961.887 1414.38 961.72 1414.48 961.6C1414.7 961.347 1414.88 961.12 1415.04 960.92C1415.22 960.72 1415.35 960.527 1415.44 960.34C1415.55 960.14 1415.63 959.947 1415.68 959.76C1415.74 959.56 1415.76 959.347 1415.76 959.12C1415.76 958.68 1415.59 958.3 1415.24 957.98C1414.9 957.647 1414.42 957.48 1413.82 957.48C1413.22 957.48 1412.76 957.653 1412.42 958C1412.09 958.333 1411.86 958.713 1411.74 959.14L1409.36 958.16C1409.47 957.8 1409.64 957.433 1409.88 957.06C1410.12 956.673 1410.43 956.333 1410.8 956.04C1411.18 955.733 1411.62 955.487 1412.12 955.3C1412.64 955.1 1413.22 955 1413.86 955C1414.56 955 1415.18 955.107 1415.74 955.32C1416.3 955.52 1416.78 955.8 1417.16 956.16C1417.55 956.52 1417.85 956.947 1418.06 957.44C1418.28 957.92 1418.38 958.44 1418.38 959C1418.38 959.853 1418.17 960.64 1417.74 961.36C1417.33 962.067 1416.82 962.727 1416.22 963.34L1414.5 965.06C1414.05 965.513 1413.54 966.02 1412.96 966.58L1413.04 966.7H1418.58V969H1409.48ZM1423.45 969V958.4L1421.03 959.42L1420.07 957.2L1424.09 955.32H1426.07V969H1423.45Z" fill="#818181"/>
</g>
<defs>
<clipPath id="clip0">
<rect width="1529" height="1081" fill="white"/>
</clipPath>
</defs>
</svg>
