<svg width="1529" height="1081" viewBox="0 0 1529 1081" fill="none" xmlns="http://www.w3.org/2000/svg">
<g clip-path="url(#clip0)">
<path d="M1528.24 1080.48V0L0 0V1080.48H1528.24Z" fill="#F8F5E7"/>
<path d="M1519.11 640.563C1457.44 639.67 1411.95 696.773 1414.23 778.775C1416.93 876.062 1397.4 973.03 1320.24 982.104C1266.23 988.455 1216.68 1014.68 1217.63 1067.29C1219.09 1148.72 1363.41 1170.45 1427.07 1151.26C1679.44 1075.17 1668.02 642.719 1519.11 640.563Z" fill="#547DBE"/>
<path d="M1601.25 94.3581C1601.25 10.8221 1476.02 -51.7829 1403.03 -56.8959C1294.43 -64.5029 1268.26 59.3101 1373.4 109.011C1449.02 144.759 1399.76 202.421 1477.89 216.719C1549.87 229.89 1601.25 177.893 1601.25 94.3581Z" fill="#F8BB15"/>
<path d="M-77.52 1016.25C-58.108 1097.49 78.239 1129.29 150.422 1117.3C257.822 1099.46 254.494 972.953 140.684 949.045C58.827 931.845 93.337 864.318 14.021 868.569C-59.048 872.485 -96.933 934.998 -77.52 1016.25Z" fill="#F8BB15"/>
<path d="M1556.5 38.6001C1517.66 124.721 1416 163.192 1329.88 124.354C1309.34 115.157 1290.82 101.977 1275.4 85.5754C1259.99 69.1742 1247.97 49.8781 1240.07 28.804C1232.04 7.77308 1228.27 -14.6403 1228.97 -37.139C1229.66 -59.6377 1234.81 -81.7747 1244.12 -102.269C1282.96 -188.392 1384.62 -226.863 1470.74 -188.025C1534.08 -159.464 1571.64 -96.9339 1571.64 -31.5839C1571.64 -7.37906 1566.48 16.5469 1556.5 38.6001V38.6001ZM1331.41 120.958C1415.66 158.952 1515.11 121.317 1553.11 37.0681C1562.87 15.4955 1567.92 -7.90895 1567.92 -31.586C1567.92 -95.51 1531.17 -156.686 1469.22 -184.628C1384.97 -222.62 1285.52 -184.986 1247.52 -100.736C1237.76 -79.1628 1232.71 -55.7576 1232.71 -32.0799C1232.71 31.8411 1269.46 93.0221 1331.41 120.958Z" fill="#48429A"/>
<path d="M113.659 381.657C134.87 340.015 138.651 292.808 137.537 246.93C136.626 208.8 133.248 168.002 154.711 135.263C169.811 112.215 213.658 102.524 201.925 5.30003C188.61 -105.028 57.221 -97.419 -44.919 31.934C-119.279 126.101 -123.362 359.123 -41.564 427.605C17.08 476.702 81.951 443.908 113.659 381.657Z" fill="#0A9C58"/>
<path d="M-5.45 381.17C-12.721 319.531 -12.431 252.734 22.499 199.457C47.069 161.951 142.28 98.0641 125.158 19.0931C101.76 -88.8409 85.997 -205.222 -1.229 -117.994C-47.685 -71.5399 -78.866 -2.67892 -85.64 70.1651C-94.323 163.541 -87.061 278.142 -20.251 365.18C-5.936 383.83 -1.32 416.136 -5.45 381.17Z" fill="#E94435"/>
<path d="M1352.05 1016.84C1352.05 1016.12 1351.84 1015.42 1351.44 1014.82C1351.05 1014.22 1350.48 1013.76 1349.82 1013.48C1349.15 1013.21 1348.42 1013.13 1347.72 1013.27C1347.01 1013.41 1346.36 1013.75 1345.85 1014.26C1345.34 1014.77 1345 1015.42 1344.86 1016.12C1344.71 1016.82 1344.78 1017.56 1345.06 1018.22C1345.33 1018.88 1345.8 1019.45 1346.39 1019.85C1346.99 1020.25 1347.69 1020.47 1348.41 1020.47C1348.89 1020.47 1349.36 1020.38 1349.8 1020.2C1350.24 1020.01 1350.64 1019.75 1350.98 1019.41C1351.32 1019.07 1351.59 1018.67 1351.77 1018.23C1351.96 1017.79 1352.05 1017.32 1352.05 1016.84V1016.84Z" fill="#F16A2E"/>
<path d="M1379.8 1016.9C1379.8 1016.18 1379.59 1015.48 1379.19 1014.88C1378.8 1014.28 1378.23 1013.81 1377.57 1013.54C1376.9 1013.26 1376.17 1013.19 1375.47 1013.32C1374.76 1013.46 1374.11 1013.81 1373.6 1014.32C1373.1 1014.82 1372.75 1015.47 1372.61 1016.17C1372.46 1016.88 1372.54 1017.61 1372.81 1018.27C1373.08 1018.94 1373.55 1019.51 1374.14 1019.91C1374.74 1020.31 1375.44 1020.52 1376.16 1020.52C1376.64 1020.53 1377.11 1020.43 1377.55 1020.25C1377.99 1020.07 1378.4 1019.8 1378.73 1019.46C1379.07 1019.13 1379.34 1018.73 1379.52 1018.29C1379.71 1017.85 1379.8 1017.37 1379.8 1016.9V1016.9Z" fill="#F16A2E"/>
<path d="M1407.56 1016.95C1407.56 1016.24 1407.34 1015.53 1406.95 1014.93C1406.55 1014.34 1405.98 1013.87 1405.32 1013.59C1404.65 1013.32 1403.92 1013.24 1403.22 1013.38C1402.51 1013.52 1401.87 1013.87 1401.36 1014.37C1400.85 1014.88 1400.5 1015.53 1400.36 1016.23C1400.22 1016.94 1400.29 1017.67 1400.56 1018.33C1400.83 1019 1401.3 1019.56 1401.9 1019.96C1402.49 1020.37 1403.2 1020.58 1403.91 1020.58C1404.39 1020.58 1404.86 1020.49 1405.31 1020.31C1405.75 1020.13 1406.15 1019.86 1406.49 1019.52C1406.82 1019.19 1407.09 1018.78 1407.28 1018.34C1407.46 1017.9 1407.55 1017.43 1407.56 1016.95V1016.95Z" fill="#F16A2E"/>
<path d="M1435.3 1017.01C1435.31 1016.29 1435.09 1015.59 1434.7 1014.99C1434.3 1014.39 1433.73 1013.92 1433.07 1013.65C1432.4 1013.37 1431.67 1013.3 1430.97 1013.44C1430.26 1013.57 1429.62 1013.92 1429.11 1014.43C1428.6 1014.93 1428.25 1015.58 1428.11 1016.29C1427.97 1016.99 1428.04 1017.72 1428.31 1018.39C1428.58 1019.05 1429.05 1019.62 1429.65 1020.02C1430.24 1020.42 1430.95 1020.63 1431.66 1020.63C1432.63 1020.64 1433.55 1020.26 1434.24 1019.58C1434.92 1018.9 1435.3 1017.97 1435.3 1017.01Z" fill="#F16A2E"/>
<path d="M1463.06 1017.06C1463.06 1016.35 1462.85 1015.64 1462.45 1015.04C1462.05 1014.44 1461.48 1013.98 1460.82 1013.7C1460.16 1013.42 1459.43 1013.35 1458.72 1013.49C1458.02 1013.63 1457.37 1013.97 1456.86 1014.48C1456.35 1014.99 1456 1015.63 1455.86 1016.34C1455.72 1017.04 1455.79 1017.77 1456.06 1018.44C1456.34 1019.1 1456.8 1019.67 1457.4 1020.07C1457.99 1020.47 1458.7 1020.69 1459.42 1020.69C1460.38 1020.69 1461.3 1020.31 1461.99 1019.63C1462.67 1018.95 1463.05 1018.03 1463.06 1017.06V1017.06Z" fill="#F16A2E"/>
<path d="M1490.81 1017.12C1490.81 1016.4 1490.6 1015.7 1490.2 1015.1C1489.8 1014.5 1489.23 1014.03 1488.57 1013.76C1487.91 1013.48 1487.18 1013.41 1486.47 1013.55C1485.77 1013.68 1485.12 1014.03 1484.61 1014.54C1484.1 1015.04 1483.75 1015.69 1483.61 1016.39C1483.47 1017.1 1483.54 1017.83 1483.81 1018.49C1484.09 1019.16 1484.55 1019.73 1485.15 1020.13C1485.75 1020.53 1486.45 1020.74 1487.17 1020.75C1488.13 1020.75 1489.05 1020.37 1489.74 1019.69C1490.42 1019.01 1490.8 1018.08 1490.81 1017.12V1017.12Z" fill="#F16A2E"/>
<path d="M1379.85 991.132C1379.86 990.413 1379.64 989.71 1379.25 989.112C1378.85 988.513 1378.28 988.047 1377.62 987.77C1376.95 987.494 1376.22 987.421 1375.52 987.559C1374.81 987.698 1374.16 988.043 1373.66 988.55C1373.15 989.058 1372.8 989.705 1372.66 990.409C1372.52 991.114 1372.59 991.845 1372.86 992.509C1373.13 993.174 1373.6 993.742 1374.2 994.143C1374.79 994.543 1375.49 994.758 1376.21 994.759C1376.69 994.76 1377.16 994.667 1377.6 994.485C1378.05 994.303 1378.45 994.036 1378.78 993.7C1379.12 993.363 1379.39 992.963 1379.57 992.522C1379.76 992.082 1379.85 991.609 1379.85 991.132Z" fill="#F16A2E"/>
<path d="M1407.61 991.188C1407.61 990.469 1407.4 989.766 1407 989.167C1406.6 988.569 1406.03 988.101 1405.37 987.825C1404.71 987.548 1403.98 987.475 1403.27 987.613C1402.56 987.752 1401.92 988.097 1401.41 988.604C1400.9 989.111 1400.55 989.758 1400.41 990.462C1400.27 991.167 1400.34 991.898 1400.61 992.563C1400.88 993.227 1401.35 993.796 1401.95 994.196C1402.54 994.597 1403.25 994.812 1403.96 994.813C1404.44 994.814 1404.91 994.721 1405.35 994.539C1405.8 994.358 1406.2 994.091 1406.54 993.755C1406.87 993.418 1407.14 993.018 1407.33 992.578C1407.51 992.137 1407.6 991.665 1407.61 991.188V991.188Z" fill="#F16A2E"/>
<path d="M1435.36 991.243C1435.36 990.524 1435.15 989.821 1434.75 989.223C1434.35 988.624 1433.78 988.157 1433.12 987.881C1432.46 987.604 1431.73 987.531 1431.02 987.669C1430.32 987.808 1429.67 988.153 1429.16 988.66C1428.65 989.167 1428.3 989.814 1428.16 990.519C1428.02 991.224 1428.09 991.954 1428.36 992.619C1428.64 993.284 1429.1 993.852 1429.7 994.253C1430.29 994.653 1431 994.868 1431.72 994.869C1432.68 994.871 1433.6 994.49 1434.29 993.81C1434.97 993.13 1435.35 992.207 1435.36 991.243V991.243Z" fill="#F16A2E"/>
<path d="M1463.1 991.297C1463.1 990.578 1462.89 989.875 1462.49 989.277C1462.1 988.679 1461.53 988.212 1460.87 987.935C1460.2 987.659 1459.47 987.586 1458.77 987.724C1458.06 987.863 1457.41 988.208 1456.9 988.715C1456.39 989.223 1456.05 989.87 1455.91 990.574C1455.76 991.279 1455.83 992.01 1456.11 992.674C1456.38 993.339 1456.85 993.907 1457.44 994.308C1458.04 994.708 1458.74 994.923 1459.46 994.924C1459.94 994.925 1460.41 994.832 1460.85 994.65C1461.29 994.468 1461.69 994.201 1462.03 993.865C1462.37 993.528 1462.64 993.128 1462.82 992.687C1463.01 992.247 1463.1 991.774 1463.1 991.297V991.297Z" fill="#F16A2E"/>
<path d="M1490.86 991.353C1490.86 990.634 1490.65 989.931 1490.25 989.333C1489.85 988.734 1489.28 988.268 1488.62 987.991C1487.96 987.715 1487.23 987.642 1486.52 987.78C1485.82 987.919 1485.17 988.264 1484.66 988.771C1484.15 989.279 1483.8 989.925 1483.66 990.63C1483.52 991.335 1483.59 992.066 1483.86 992.73C1484.14 993.395 1484.6 993.963 1485.2 994.364C1485.8 994.764 1486.5 994.979 1487.22 994.98C1487.69 994.981 1488.17 994.888 1488.61 994.706C1489.05 994.524 1489.45 994.257 1489.79 993.921C1490.13 993.584 1490.4 993.184 1490.58 992.743C1490.76 992.302 1490.86 991.83 1490.86 991.353Z" fill="#F16A2E"/>
<path d="M1407.66 965.421C1407.66 964.702 1407.45 963.999 1407.05 963.401C1406.65 962.802 1406.08 962.335 1405.42 962.059C1404.76 961.783 1404.02 961.71 1403.32 961.849C1402.61 961.988 1401.97 962.333 1401.46 962.84C1400.95 963.348 1400.6 963.995 1400.46 964.699C1400.32 965.404 1400.39 966.135 1400.66 966.8C1400.94 967.464 1401.4 968.032 1402 968.433C1402.6 968.833 1403.3 969.047 1404.02 969.048C1404.98 969.049 1405.91 968.668 1406.59 967.988C1407.27 967.308 1407.65 966.384 1407.66 965.421Z" fill="#F16A2E"/>
<path d="M1435.41 965.478C1435.41 964.759 1435.2 964.056 1434.8 963.458C1434.4 962.859 1433.83 962.393 1433.17 962.116C1432.51 961.84 1431.78 961.767 1431.07 961.905C1430.37 962.044 1429.72 962.389 1429.21 962.896C1428.7 963.404 1428.35 964.05 1428.21 964.755C1428.07 965.46 1428.14 966.191 1428.41 966.855C1428.69 967.52 1429.15 968.088 1429.75 968.489C1430.35 968.889 1431.05 969.104 1431.77 969.105C1432.24 969.106 1432.72 969.013 1433.16 968.831C1433.6 968.65 1434 968.383 1434.34 968.046C1434.68 967.709 1434.94 967.309 1435.13 966.868C1435.31 966.428 1435.41 965.955 1435.41 965.478Z" fill="#F16A2E"/>
<path d="M1463.16 965.532C1463.16 964.813 1462.95 964.11 1462.55 963.512C1462.15 962.914 1461.58 962.447 1460.92 962.17C1460.26 961.894 1459.53 961.821 1458.82 961.96C1458.12 962.098 1457.47 962.443 1456.96 962.951C1456.45 963.458 1456.1 964.105 1455.96 964.809C1455.82 965.514 1455.89 966.245 1456.16 966.909C1456.44 967.574 1456.9 968.142 1457.5 968.543C1458.1 968.943 1458.8 969.158 1459.52 969.159C1460.48 969.161 1461.4 968.78 1462.09 968.099C1462.77 967.419 1463.15 966.496 1463.16 965.532V965.532Z" fill="#F16A2E"/>
<path d="M1490.91 965.588C1490.91 964.869 1490.7 964.166 1490.3 963.568C1489.9 962.97 1489.34 962.503 1488.67 962.226C1488.01 961.95 1487.28 961.877 1486.57 962.015C1485.87 962.154 1485.22 962.499 1484.71 963.006C1484.2 963.514 1483.85 964.161 1483.71 964.865C1483.57 965.57 1483.64 966.301 1483.92 966.965C1484.19 967.63 1484.65 968.198 1485.25 968.599C1485.85 968.999 1486.55 969.214 1487.27 969.215C1487.75 969.216 1488.22 969.123 1488.66 968.941C1489.1 968.76 1489.5 968.493 1489.84 968.156C1490.18 967.819 1490.45 967.419 1490.63 966.978C1490.81 966.538 1490.91 966.065 1490.91 965.588Z" fill="#F16A2E"/>
<path d="M1435.46 939.71C1435.46 938.991 1435.25 938.288 1434.85 937.69C1434.45 937.092 1433.89 936.625 1433.22 936.349C1432.56 936.073 1431.83 936 1431.12 936.139C1430.42 936.278 1429.77 936.623 1429.26 937.13C1428.75 937.637 1428.4 938.284 1428.26 938.989C1428.12 939.693 1428.19 940.424 1428.47 941.089C1428.74 941.753 1429.2 942.321 1429.8 942.722C1430.4 943.122 1431.1 943.337 1431.82 943.338C1432.3 943.339 1432.77 943.246 1433.21 943.064C1433.65 942.882 1434.05 942.615 1434.39 942.278C1434.73 941.941 1435 941.541 1435.18 941.101C1435.36 940.66 1435.46 940.187 1435.46 939.71Z" fill="#F16A2E"/>
<path d="M1463.21 939.767C1463.21 939.048 1463 938.345 1462.6 937.747C1462.2 937.148 1461.64 936.681 1460.97 936.405C1460.31 936.128 1459.58 936.055 1458.87 936.193C1458.17 936.332 1457.52 936.677 1457.01 937.184C1456.5 937.691 1456.15 938.338 1456.01 939.043C1455.87 939.748 1455.94 940.478 1456.21 941.143C1456.49 941.808 1456.95 942.376 1457.55 942.777C1458.15 943.177 1458.85 943.392 1459.57 943.393C1460.04 943.394 1460.52 943.301 1460.96 943.12C1461.4 942.938 1461.8 942.671 1462.14 942.335C1462.48 941.998 1462.75 941.598 1462.93 941.157C1463.11 940.717 1463.21 940.244 1463.21 939.767V939.767Z" fill="#F16A2E"/>
<path d="M1490.96 939.821C1490.96 939.102 1490.75 938.399 1490.35 937.801C1489.95 937.202 1489.39 936.736 1488.72 936.459C1488.06 936.183 1487.33 936.11 1486.62 936.248C1485.92 936.387 1485.27 936.732 1484.76 937.239C1484.25 937.747 1483.9 938.393 1483.76 939.098C1483.62 939.803 1483.69 940.534 1483.96 941.198C1484.24 941.863 1484.7 942.431 1485.3 942.832C1485.9 943.232 1486.6 943.447 1487.32 943.448C1488.28 943.45 1489.21 943.068 1489.89 942.388C1490.57 941.708 1490.96 940.785 1490.96 939.821V939.821Z" fill="#F16A2E"/>
<path d="M1463.21 915.083C1463.21 914.364 1463 913.661 1462.6 913.063C1462.2 912.464 1461.64 911.997 1460.97 911.721C1460.31 911.444 1459.58 911.371 1458.87 911.509C1458.17 911.648 1457.52 911.993 1457.01 912.5C1456.5 913.007 1456.15 913.654 1456.01 914.359C1455.87 915.063 1455.94 915.794 1456.21 916.459C1456.49 917.123 1456.95 917.692 1457.55 918.093C1458.15 918.493 1458.85 918.708 1459.57 918.709C1460.04 918.71 1460.52 918.617 1460.96 918.436C1461.4 918.254 1461.8 917.987 1462.14 917.65C1462.48 917.314 1462.75 916.914 1462.93 916.473C1463.11 916.033 1463.21 915.56 1463.21 915.083V915.083Z" fill="#F16A2E"/>
<path d="M1490.96 915.138C1490.96 914.419 1490.75 913.716 1490.35 913.118C1489.95 912.519 1489.39 912.052 1488.72 911.776C1488.06 911.499 1487.33 911.426 1486.62 911.564C1485.92 911.703 1485.27 912.048 1484.76 912.555C1484.25 913.062 1483.9 913.709 1483.76 914.414C1483.62 915.119 1483.69 915.849 1483.96 916.514C1484.24 917.179 1484.7 917.747 1485.3 918.148C1485.9 918.548 1486.6 918.763 1487.32 918.764C1488.28 918.766 1489.21 918.385 1489.89 917.705C1490.57 917.025 1490.96 916.102 1490.96 915.138V915.138Z" fill="#F16A2E"/>
<path d="M1490.96 890.692C1490.96 889.973 1490.75 889.27 1490.35 888.672C1489.95 888.074 1489.39 887.607 1488.72 887.33C1488.06 887.054 1487.33 886.981 1486.62 887.119C1485.92 887.258 1485.27 887.603 1484.76 888.11C1484.25 888.618 1483.9 889.265 1483.76 889.969C1483.62 890.674 1483.69 891.405 1483.96 892.069C1484.24 892.734 1484.7 893.302 1485.3 893.703C1485.9 894.103 1486.6 894.318 1487.32 894.319C1487.8 894.32 1488.27 894.227 1488.71 894.045C1489.15 893.864 1489.55 893.597 1489.89 893.26C1490.23 892.923 1490.5 892.523 1490.68 892.082C1490.86 891.642 1490.96 891.169 1490.96 890.692V890.692Z" fill="#F16A2E"/>
<path d="M1468.31 1000.59V77.6301L62.021 77.6301V1000.59L1468.31 1000.59Z" fill="white"/>
<path d="M1461.65 482.124C1461.41 482.59 1461.26 483.099 1461.21 483.624C1461.16 484.148 1461.21 484.677 1461.37 485.18C1461.52 485.683 1461.78 486.151 1462.11 486.556C1462.45 486.962 1462.86 487.297 1463.33 487.542L1489.33 501.271C1490.28 501.768 1491.38 501.871 1492.39 501.557C1493.41 501.243 1494.26 500.539 1494.75 499.598V499.598C1495.25 498.657 1495.35 497.558 1495.04 496.542C1494.73 495.526 1494.02 494.677 1493.08 494.18L1467.07 480.451C1466.61 480.205 1466.1 480.053 1465.57 480.004C1465.05 479.955 1464.52 480.01 1464.02 480.165C1463.51 480.321 1463.04 480.574 1462.64 480.91C1462.23 481.246 1461.9 481.658 1461.65 482.124Z" fill="#F16A2E"/>
<path d="M1469.47 507.413C1469.93 507.659 1470.44 507.811 1470.97 507.86C1471.49 507.909 1472.02 507.854 1472.52 507.698C1473.03 507.543 1473.49 507.29 1473.9 506.953C1474.3 506.617 1474.64 506.204 1474.88 505.738L1488.61 479.731C1489.11 478.79 1489.21 477.691 1488.9 476.675C1488.59 475.658 1487.88 474.808 1486.94 474.311V474.311C1486 473.815 1484.9 473.713 1483.88 474.027C1482.87 474.341 1482.02 475.046 1481.52 475.986L1467.79 501.993C1467.29 502.934 1467.19 504.034 1467.51 505.05C1467.82 506.066 1468.53 506.916 1469.47 507.413V507.413Z" fill="#F16A2E"/>
<path d="M307.8 88.3941C307.801 87.6755 307.588 86.9728 307.19 86.3748C306.791 85.7768 306.225 85.3104 305.561 85.0345C304.897 84.7587 304.167 84.6857 303.462 84.8249C302.757 84.9641 302.109 85.3092 301.6 85.8166C301.091 86.324 300.744 86.9708 300.603 87.6754C300.462 88.38 300.532 89.1106 300.806 89.775C301.08 90.4394 301.545 91.0077 302.142 91.408C302.738 91.8083 303.44 92.0227 304.159 92.0241C304.636 92.025 305.109 91.9318 305.551 91.7499C305.992 91.5679 306.394 91.3007 306.732 90.9636C307.07 90.6265 307.338 90.2261 307.522 89.7852C307.705 89.3443 307.799 88.8716 307.8 88.3941Z" fill="#4665AF"/>
<path d="M335.551 88.4501C335.552 87.7313 335.341 87.0283 334.942 86.43C334.544 85.8316 333.978 85.3647 333.314 85.0884C332.651 84.8121 331.92 84.7387 331.215 84.8776C330.51 85.0164 329.862 85.3613 329.352 85.8685C328.843 86.3758 328.496 87.0226 328.354 87.7273C328.213 88.4319 328.283 89.1627 328.557 89.8273C328.831 90.4918 329.295 91.0603 329.892 91.4607C330.489 91.8612 331.191 92.0757 331.91 92.0771C332.387 92.078 332.86 91.9849 333.301 91.8031C333.742 91.6214 334.144 91.3545 334.482 91.0177C334.82 90.6809 335.088 90.2808 335.272 89.8402C335.455 89.3997 335.55 88.9273 335.551 88.4501Z" fill="#4665AF"/>
<path d="M363.302 88.505C363.303 87.7863 363.092 87.0833 362.693 86.4849C362.295 85.8865 361.729 85.4196 361.065 85.1433C360.402 84.867 359.671 84.7936 358.966 84.9325C358.261 85.0713 357.613 85.4162 357.103 85.9234C356.594 86.4307 356.247 87.0775 356.105 87.7822C355.964 88.4868 356.034 89.2177 356.308 89.8822C356.582 90.5468 357.046 91.1152 357.643 91.5157C358.24 91.9161 358.942 92.1306 359.661 92.132C360.625 92.1336 361.55 91.7524 362.232 91.0723C362.915 90.3922 363.3 89.4687 363.302 88.505Z" fill="#4665AF"/>
<path d="M391.053 88.5611C391.055 87.8423 390.843 87.1391 390.445 86.5404C390.047 85.9418 389.481 85.4746 388.817 85.198C388.154 84.9213 387.423 84.8477 386.718 84.9863C386.013 85.125 385.364 85.4696 384.855 85.9768C384.346 86.484 383.998 87.1308 383.856 87.8355C383.715 88.5402 383.785 89.2712 384.059 89.9358C384.332 90.6005 384.797 91.1691 385.394 91.5696C385.991 91.9702 386.693 92.1847 387.412 92.1861C388.375 92.1879 389.3 91.8071 389.983 91.1274C390.666 90.4476 391.051 89.5245 391.053 88.5611V88.5611Z" fill="#4665AF"/>
<path d="M418.802 88.6161C418.803 87.8973 418.592 87.1942 418.193 86.5958C417.795 85.9974 417.228 85.5305 416.565 85.2542C415.901 84.9779 415.17 84.9047 414.465 85.0437C413.76 85.1827 413.112 85.5278 412.603 86.0352C412.093 86.5427 411.746 87.1897 411.605 87.8945C411.464 88.5993 411.534 89.3302 411.809 89.9947C412.083 90.6592 412.548 91.2275 413.145 91.6277C413.742 92.028 414.444 92.2421 415.163 92.2431C415.64 92.244 416.113 92.1509 416.554 91.9691C416.995 91.7873 417.396 91.5204 417.734 91.1836C418.072 90.8467 418.34 90.4466 418.523 90.0061C418.707 89.5655 418.801 89.0932 418.802 88.6161V88.6161Z" fill="#4665AF"/>
<path d="M307.851 62.629C307.852 61.9103 307.641 61.2073 307.242 60.6089C306.844 60.0105 306.278 59.5437 305.614 59.2673C304.951 58.991 304.22 58.9176 303.515 59.0565C302.81 59.1954 302.162 59.5402 301.652 60.0475C301.143 60.5547 300.796 61.2016 300.654 61.9062C300.513 62.6109 300.583 63.3417 300.857 64.0062C301.131 64.6708 301.595 65.2392 302.192 65.6397C302.789 66.0402 303.491 66.2546 304.21 66.256C304.687 66.2571 305.16 66.1641 305.601 65.9824C306.043 65.8006 306.444 65.5337 306.782 65.1969C307.12 64.8601 307.389 64.4599 307.572 64.0193C307.755 63.5787 307.85 63.1063 307.851 62.629V62.629Z" fill="#4665AF"/>
<path d="M335.602 62.683C335.603 61.9643 335.392 61.2612 334.993 60.6629C334.595 60.0645 334.029 59.5976 333.365 59.3213C332.702 59.045 331.971 58.9716 331.266 59.1105C330.561 59.2493 329.913 59.5942 329.403 60.1014C328.894 60.6087 328.547 61.2555 328.405 61.9602C328.264 62.6648 328.334 63.3956 328.608 64.0602C328.882 64.7247 329.346 65.2932 329.943 65.6937C330.54 66.0941 331.242 66.3086 331.961 66.31C332.925 66.3116 333.85 65.9304 334.532 65.2503C335.215 64.5701 335.6 63.6467 335.602 62.683V62.683Z" fill="#4665AF"/>
<path d="M363.353 62.74C363.354 62.0213 363.143 61.3183 362.744 60.7199C362.346 60.1215 361.78 59.6546 361.116 59.3783C360.453 59.102 359.722 59.0286 359.017 59.1675C358.312 59.3063 357.664 59.6512 357.154 60.1584C356.645 60.6657 356.298 61.3125 356.156 62.0172C356.015 62.7218 356.085 63.4526 356.359 64.1172C356.633 64.7818 357.097 65.3502 357.694 65.7507C358.291 66.1511 358.993 66.3656 359.712 66.367C360.189 66.3679 360.662 66.2748 361.103 66.0931C361.544 65.9113 361.946 65.6444 362.284 65.3076C362.622 64.9708 362.89 64.5707 363.074 64.1301C363.257 63.6896 363.352 63.2172 363.353 62.74Z" fill="#4665AF"/>
<path d="M391.103 62.7941C391.104 62.0753 390.893 61.3723 390.494 60.774C390.096 60.1756 389.53 59.7087 388.866 59.4324C388.203 59.1561 387.472 59.0827 386.767 59.2215C386.062 59.3604 385.414 59.7053 384.904 60.2125C384.395 60.7198 384.048 61.3666 383.906 62.0713C383.765 62.7759 383.835 63.5067 384.109 64.1713C384.383 64.8358 384.847 65.4043 385.444 65.8047C386.041 66.2052 386.743 66.4197 387.462 66.4211C387.939 66.422 388.412 66.3289 388.853 66.1471C389.294 65.9654 389.696 65.6984 390.034 65.3616C390.372 65.0248 390.64 64.6248 390.824 64.1842C391.007 63.7437 391.102 63.2713 391.103 62.7941Z" fill="#4665AF"/>
<path d="M418.855 62.853C418.856 62.1343 418.645 61.4313 418.246 60.8329C417.848 60.2345 417.282 59.7677 416.618 59.4913C415.955 59.215 415.224 59.1416 414.519 59.2805C413.814 59.4194 413.166 59.7642 412.656 60.2715C412.147 60.7787 411.8 61.4256 411.658 62.1302C411.517 62.8349 411.587 63.5657 411.861 64.2302C412.135 64.8948 412.599 65.4632 413.196 65.8637C413.793 66.2642 414.495 66.4786 415.214 66.48C415.691 66.4809 416.164 66.3879 416.605 66.2061C417.046 66.0243 417.448 65.7574 417.786 65.4206C418.124 65.0838 418.392 64.6837 418.576 64.2432C418.759 63.8026 418.854 63.3303 418.855 62.853V62.853Z" fill="#4665AF"/>
<path d="M115.376 1074.02C115.376 1068.87 112.143 1066.25 109.546 1064.15C106.989 1062.08 105.54 1060.78 105.54 1058.1C105.54 1055.42 106.988 1054.13 109.546 1052.06C112.146 1049.96 115.376 1047.34 115.376 1042.19C115.376 1037.04 112.143 1034.43 109.546 1032.33C106.989 1030.27 105.54 1028.97 105.54 1026.3C105.54 1023.62 106.988 1022.32 109.546 1020.26C112.146 1018.16 115.376 1015.54 115.376 1010.39C115.376 1005.24 112.142 1002.63 109.542 1000.53C106.988 998.464 105.542 997.164 105.542 994.494C105.542 991.824 106.99 990.523 109.548 988.455C112.148 986.355 115.378 983.741 115.378 978.593C115.378 973.445 112.145 970.832 109.548 968.733C106.991 966.666 105.542 965.364 105.542 962.694C105.549 962.367 105.49 962.042 105.369 961.738C105.249 961.434 105.069 961.157 104.84 960.923C104.611 960.69 104.338 960.504 104.036 960.378C103.734 960.251 103.411 960.186 103.084 960.186C102.756 960.186 102.433 960.251 102.131 960.378C101.829 960.504 101.556 960.69 101.327 960.923C101.098 961.157 100.918 961.434 100.798 961.738C100.677 962.042 100.618 962.367 100.625 962.694C100.625 967.843 103.859 970.457 106.457 972.555C109.013 974.622 110.457 975.922 110.457 978.592C110.457 981.262 109.009 982.563 106.451 984.631C103.851 986.731 100.621 989.345 100.621 994.492C100.621 999.639 103.852 1002.25 106.451 1004.35C109.008 1006.42 110.457 1007.72 110.457 1010.39C110.457 1013.06 109.009 1014.36 106.451 1016.43C103.851 1018.53 100.621 1021.15 100.621 1026.29C100.621 1031.44 103.852 1034.06 106.451 1036.15C109.008 1038.22 110.457 1039.52 110.457 1042.19C110.457 1044.86 109.009 1046.16 106.451 1048.24C103.851 1050.34 100.621 1052.95 100.621 1058.1C100.621 1063.25 103.852 1065.87 106.451 1067.97C109.008 1070.04 110.457 1071.34 110.457 1074.02C110.457 1076.7 109.009 1078 106.451 1080.07C103.851 1082.17 100.621 1084.79 100.621 1089.94C100.634 1090.58 100.899 1091.19 101.358 1091.64C101.818 1092.1 102.436 1092.35 103.08 1092.35C103.723 1092.35 104.341 1092.1 104.801 1091.64C105.26 1091.19 105.525 1090.58 105.538 1089.94C105.538 1087.26 106.986 1085.96 109.544 1083.89C112.143 1081.79 115.376 1079.17 115.376 1074.02Z" fill="#332D66"/>
<path d="M1146.78 891.228H1144.61L1136.38 878.627V891.228H1134.21V874.876H1136.38L1144.63 887.533V874.876H1146.78V891.228ZM1149.79 885.051C1149.79 883.157 1150.23 881.652 1151.1 880.537C1151.98 879.414 1153.14 878.852 1154.58 878.852C1156.07 878.852 1157.22 879.376 1158.05 880.424L1158.16 879.077H1160.05V890.936C1160.05 892.508 1159.59 893.747 1158.65 894.653C1157.72 895.559 1156.47 896.012 1154.9 896.012C1154.02 896.012 1153.17 895.825 1152.33 895.451C1151.49 895.076 1150.85 894.563 1150.41 893.912L1151.48 892.666C1152.38 893.766 1153.46 894.316 1154.75 894.316C1155.76 894.316 1156.55 894.032 1157.11 893.463C1157.68 892.894 1157.96 892.093 1157.96 891.06V890.015C1157.13 890.973 1156 891.453 1154.56 891.453C1153.14 891.453 1151.99 890.88 1151.1 889.734C1150.23 888.589 1149.79 887.028 1149.79 885.051ZM1151.88 885.287C1151.88 886.657 1152.16 887.735 1152.72 888.521C1153.28 889.3 1154.07 889.689 1155.08 889.689C1156.39 889.689 1157.35 889.094 1157.96 887.904V882.356C1157.33 881.195 1156.37 880.615 1155.1 880.615C1154.09 880.615 1153.3 881.008 1152.73 881.794C1152.16 882.581 1151.88 883.745 1151.88 885.287ZM1170.7 890.026C1169.89 890.977 1168.7 891.453 1167.14 891.453C1165.84 891.453 1164.86 891.078 1164.17 890.33C1163.5 889.573 1163.16 888.458 1163.15 886.983V879.077H1165.23V886.927C1165.23 888.769 1165.98 889.689 1167.48 889.689C1169.06 889.689 1170.12 889.098 1170.64 887.915V879.077H1172.72V891.228H1170.74L1170.7 890.026ZM1179.86 888.185L1182.69 879.077H1184.92L1180.03 893.104C1179.28 895.125 1178.07 896.136 1176.43 896.136L1176.03 896.102L1175.26 895.956V894.271L1175.82 894.316C1176.52 894.316 1177.07 894.174 1177.46 893.89C1177.86 893.605 1178.18 893.085 1178.44 892.329L1178.9 891.093L1174.56 879.077H1176.83L1179.86 888.185ZM1191.67 891.453C1190.02 891.453 1188.68 890.914 1187.65 889.835C1186.61 888.75 1186.1 887.301 1186.1 885.489V885.107C1186.1 883.902 1186.33 882.828 1186.78 881.884C1187.25 880.933 1187.89 880.192 1188.71 879.661C1189.54 879.122 1190.44 878.852 1191.41 878.852C1192.99 878.852 1194.22 879.372 1195.09 880.413C1195.97 881.454 1196.41 882.944 1196.41 884.883V885.748H1188.17C1188.2 886.945 1188.55 887.915 1189.22 888.656C1189.89 889.39 1190.75 889.757 1191.78 889.757C1192.51 889.757 1193.13 889.607 1193.64 889.308C1194.15 889.008 1194.6 888.611 1194.98 888.117L1196.25 889.105C1195.23 890.67 1193.7 891.453 1191.67 891.453ZM1191.41 880.559C1190.57 880.559 1189.87 880.866 1189.3 881.48C1188.73 882.086 1188.38 882.94 1188.24 884.041H1194.33V883.883C1194.27 882.828 1193.98 882.012 1193.48 881.435C1192.97 880.851 1192.28 880.559 1191.41 880.559ZM1200.79 879.077L1200.85 880.604C1201.78 879.436 1202.99 878.852 1204.49 878.852C1207.06 878.852 1208.36 880.301 1208.38 883.198V891.228H1206.3V883.187C1206.29 882.311 1206.09 881.663 1205.69 881.244C1205.3 880.825 1204.69 880.615 1203.86 880.615C1203.19 880.615 1202.6 880.795 1202.09 881.154C1201.58 881.514 1201.18 881.985 1200.9 882.569V891.228H1198.82V879.077H1200.79ZM1230.11 891.228H1227.94V883.67H1219.7V891.228H1217.54V874.876H1219.7V881.907H1227.94V874.876H1230.11V891.228ZM1241.11 890.026C1240.31 890.977 1239.12 891.453 1237.55 891.453C1236.26 891.453 1235.27 891.078 1234.59 890.33C1233.92 889.573 1233.58 888.458 1233.57 886.983V879.077H1235.65V886.927C1235.65 888.769 1236.39 889.689 1237.89 889.689C1239.48 889.689 1240.53 889.098 1241.06 887.915V879.077H1243.14V891.228H1241.16L1241.11 890.026ZM1253.81 890.026C1253 890.977 1251.81 891.453 1250.25 891.453C1248.95 891.453 1247.96 891.078 1247.28 890.33C1246.61 889.573 1246.27 888.458 1246.26 886.983V879.077H1248.34V886.927C1248.34 888.769 1249.08 889.689 1250.58 889.689C1252.17 889.689 1253.22 889.098 1253.75 887.915V879.077H1255.83V891.228H1253.85L1253.81 890.026ZM1277.59 891.228H1275.42L1267.19 878.627V891.228H1265.02V874.876H1267.19L1275.45 887.533V874.876H1277.59V891.228ZM1280.6 885.051C1280.6 883.157 1281.04 881.652 1281.92 880.537C1282.79 879.414 1283.95 878.852 1285.4 878.852C1286.88 878.852 1288.04 879.376 1288.87 880.424L1288.97 879.077H1290.87V890.936C1290.87 892.508 1290.4 893.747 1289.46 894.653C1288.53 895.559 1287.28 896.012 1285.71 896.012C1284.83 896.012 1283.98 895.825 1283.14 895.451C1282.3 895.076 1281.66 894.563 1281.22 893.912L1282.3 892.666C1283.19 893.766 1284.28 894.316 1285.56 894.316C1286.58 894.316 1287.36 894.032 1287.92 893.463C1288.49 892.894 1288.78 892.093 1288.78 891.06V890.015C1287.95 890.973 1286.81 891.453 1285.37 891.453C1283.95 891.453 1282.8 890.88 1281.92 889.734C1281.04 888.589 1280.6 887.028 1280.6 885.051ZM1282.69 885.287C1282.69 886.657 1282.97 887.735 1283.53 888.521C1284.09 889.3 1284.88 889.689 1285.89 889.689C1287.2 889.689 1288.16 889.094 1288.78 887.904V882.356C1288.14 881.195 1287.19 880.615 1285.91 880.615C1284.9 880.615 1284.11 881.008 1283.54 881.794C1282.97 882.581 1282.69 883.745 1282.69 885.287ZM1301.51 890.026C1300.7 890.977 1299.52 891.453 1297.95 891.453C1296.66 891.453 1295.67 891.078 1294.99 890.33C1294.31 889.573 1293.97 888.458 1293.97 886.983V879.077H1296.04V886.927C1296.04 888.769 1296.79 889.689 1298.29 889.689C1299.88 889.689 1300.93 889.098 1301.46 887.915V879.077H1303.53V891.228H1301.56L1301.51 890.026ZM1310.68 888.185L1313.51 879.077H1315.73L1310.84 893.104C1310.09 895.125 1308.89 896.136 1307.24 896.136L1306.85 896.102L1306.07 895.956V894.271L1306.63 894.316C1307.34 894.316 1307.88 894.174 1308.27 893.89C1308.67 893.605 1309 893.085 1309.25 892.329L1309.71 891.093L1305.38 879.077H1307.64L1310.68 888.185ZM1322.48 891.453C1320.83 891.453 1319.49 890.914 1318.46 889.835C1317.43 888.75 1316.91 887.301 1316.91 885.489V885.107C1316.91 883.902 1317.14 882.828 1317.59 881.884C1318.06 880.933 1318.7 880.192 1319.53 879.661C1320.36 879.122 1321.26 878.852 1322.22 878.852C1323.8 878.852 1325.03 879.372 1325.9 880.413C1326.78 881.454 1327.22 882.944 1327.22 884.883V885.748H1318.99C1319.02 886.945 1319.36 887.915 1320.03 888.656C1320.71 889.39 1321.56 889.757 1322.59 889.757C1323.33 889.757 1323.95 889.607 1324.46 889.308C1324.97 889.008 1325.41 888.611 1325.79 888.117L1327.06 889.105C1326.04 890.67 1324.52 891.453 1322.48 891.453ZM1322.22 880.559C1321.38 880.559 1320.68 880.866 1320.11 881.48C1319.54 882.086 1319.19 882.94 1319.05 884.041H1325.14V883.883C1325.08 882.828 1324.8 882.012 1324.29 881.435C1323.78 880.851 1323.09 880.559 1322.22 880.559ZM1331.6 879.077L1331.67 880.604C1332.59 879.436 1333.81 878.852 1335.3 878.852C1337.87 878.852 1339.17 880.301 1339.19 883.198V891.228H1337.11V883.187C1337.11 882.311 1336.9 881.663 1336.51 881.244C1336.12 880.825 1335.51 880.615 1334.68 880.615C1334 880.615 1333.41 880.795 1332.9 881.154C1332.39 881.514 1332 881.985 1331.71 882.569V891.228H1329.63V879.077H1331.6ZM1353.34 883.086L1357.61 874.876H1360.06L1354.42 885.13V891.228H1352.26V885.13L1346.62 874.876H1349.1L1353.34 883.086ZM1135.04 918.228V901.876H1139.66C1141.08 901.876 1142.34 902.191 1143.43 902.82C1144.53 903.449 1145.37 904.343 1145.96 905.504C1146.56 906.664 1146.86 907.997 1146.87 909.502V910.546C1146.87 912.089 1146.57 913.44 1145.97 914.601C1145.38 915.761 1144.53 916.652 1143.42 917.273C1142.32 917.895 1141.04 918.213 1139.57 918.228H1135.04ZM1137.2 903.651V916.465H1139.47C1141.13 916.465 1142.42 915.948 1143.34 914.915C1144.27 913.882 1144.73 912.411 1144.73 910.501V909.547C1144.73 907.69 1144.3 906.249 1143.42 905.223C1142.55 904.19 1141.32 903.666 1139.71 903.651H1137.2ZM1154.95 910.939C1153.11 910.408 1151.76 909.757 1150.91 908.985C1150.07 908.207 1149.65 907.248 1149.65 906.11C1149.65 904.823 1150.17 903.759 1151.19 902.921C1152.23 902.075 1153.57 901.652 1155.21 901.652C1156.34 901.652 1157.34 901.869 1158.21 902.303C1159.09 902.737 1159.78 903.336 1160.26 904.1C1160.74 904.864 1160.99 905.699 1160.99 906.604H1158.82C1158.82 905.616 1158.5 904.841 1157.87 904.28C1157.25 903.711 1156.36 903.426 1155.21 903.426C1154.15 903.426 1153.32 903.662 1152.72 904.134C1152.13 904.598 1151.83 905.246 1151.83 906.077C1151.83 906.743 1152.11 907.308 1152.67 907.772C1153.24 908.229 1154.21 908.648 1155.56 909.03C1156.92 909.412 1157.99 909.835 1158.75 910.299C1159.52 910.756 1160.09 911.291 1160.46 911.905C1160.83 912.519 1161.02 913.242 1161.02 914.073C1161.02 915.398 1160.5 916.461 1159.47 917.262C1158.44 918.056 1157.05 918.453 1155.33 918.453C1154.2 918.453 1153.15 918.239 1152.18 917.812C1151.21 917.378 1150.45 916.787 1149.92 916.038C1149.4 915.289 1149.14 914.44 1149.14 913.489H1151.3C1151.3 914.477 1151.67 915.259 1152.39 915.836C1153.13 916.405 1154.1 916.689 1155.33 916.689C1156.46 916.689 1157.34 916.457 1157.94 915.993C1158.55 915.529 1158.85 914.896 1158.85 914.095C1158.85 913.294 1158.57 912.676 1158.01 912.242C1157.45 911.8 1156.43 911.366 1154.95 910.939ZM1175.82 913.04C1175.62 914.769 1174.98 916.105 1173.9 917.049C1172.83 917.985 1171.4 918.453 1169.62 918.453C1167.69 918.453 1166.14 917.76 1164.97 916.375C1163.81 914.99 1163.23 913.137 1163.23 910.816V909.244C1163.23 907.724 1163.5 906.387 1164.04 905.234C1164.59 904.081 1165.36 903.198 1166.35 902.584C1167.35 901.963 1168.5 901.652 1169.81 901.652C1171.55 901.652 1172.94 902.139 1173.99 903.112C1175.04 904.078 1175.65 905.418 1175.82 907.132H1173.65C1173.47 905.83 1173.06 904.886 1172.43 904.302C1171.81 903.718 1170.94 903.426 1169.81 903.426C1168.43 903.426 1167.35 903.935 1166.57 904.954C1165.79 905.972 1165.4 907.421 1165.4 909.3V910.883C1165.4 912.658 1165.77 914.069 1166.51 915.117C1167.25 916.165 1168.29 916.689 1169.62 916.689C1170.82 916.689 1171.74 916.42 1172.37 915.881C1173.02 915.334 1173.44 914.387 1173.65 913.04H1175.82ZM1186.65 916.465H1194.4V918.228H1184.48V901.876H1186.65V916.465ZM1201.57 918.453C1199.93 918.453 1198.58 917.914 1197.55 916.835C1196.52 915.75 1196 914.301 1196 912.489V912.107C1196 910.902 1196.23 909.828 1196.69 908.884C1197.15 907.933 1197.8 907.192 1198.62 906.661C1199.45 906.122 1200.35 905.852 1201.31 905.852C1202.89 905.852 1204.12 906.372 1205 907.413C1205.87 908.454 1206.31 909.944 1206.31 911.883V912.748H1198.08C1198.11 913.945 1198.46 914.915 1199.12 915.656C1199.8 916.39 1200.65 916.757 1201.68 916.757C1202.42 916.757 1203.04 916.607 1203.55 916.308C1204.06 916.008 1204.5 915.611 1204.89 915.117L1206.15 916.105C1205.14 917.67 1203.61 918.453 1201.57 918.453ZM1201.31 907.559C1200.48 907.559 1199.77 907.866 1199.2 908.48C1198.63 909.086 1198.28 909.94 1198.15 911.041H1204.23V910.883C1204.17 909.828 1203.89 909.012 1203.38 908.435C1202.87 907.851 1202.18 907.559 1201.31 907.559ZM1216.23 918.228C1216.11 917.988 1216.01 917.562 1215.94 916.948C1214.97 917.951 1213.82 918.453 1212.48 918.453C1211.28 918.453 1210.29 918.116 1209.52 917.442C1208.76 916.761 1208.38 915.9 1208.38 914.859C1208.38 913.594 1208.86 912.613 1209.82 911.917C1210.78 911.213 1212.14 910.861 1213.88 910.861H1215.9V909.906C1215.9 909.18 1215.69 908.604 1215.25 908.177C1214.82 907.743 1214.18 907.525 1213.33 907.525C1212.59 907.525 1211.97 907.713 1211.47 908.087C1210.96 908.461 1210.71 908.914 1210.71 909.446H1208.62C1208.62 908.839 1208.84 908.255 1209.27 907.694C1209.7 907.125 1210.28 906.676 1211.02 906.346C1211.76 906.017 1212.57 905.852 1213.45 905.852C1214.85 905.852 1215.95 906.204 1216.74 906.908C1217.54 907.604 1217.95 908.566 1217.98 909.794V915.387C1217.98 916.502 1218.12 917.389 1218.41 918.048V918.228H1216.23ZM1212.78 916.645C1213.43 916.645 1214.05 916.476 1214.63 916.139C1215.22 915.802 1215.64 915.364 1215.9 914.825V912.332H1214.27C1211.73 912.332 1210.46 913.077 1210.46 914.567C1210.46 915.218 1210.67 915.727 1211.11 916.094C1211.54 916.461 1212.1 916.645 1212.78 916.645ZM1220.73 912.051C1220.73 910.187 1221.17 908.69 1222.06 907.559C1222.94 906.421 1224.1 905.852 1225.53 905.852C1226.95 905.852 1228.08 906.339 1228.91 907.312V900.978H1230.98V918.228H1229.08L1228.97 916.925C1228.14 917.944 1226.99 918.453 1225.5 918.453C1224.1 918.453 1222.95 917.876 1222.06 916.723C1221.17 915.57 1220.73 914.065 1220.73 912.208V912.051ZM1222.81 912.287C1222.81 913.665 1223.09 914.743 1223.66 915.521C1224.23 916.3 1225.02 916.689 1226.02 916.689C1227.34 916.689 1228.3 916.098 1228.91 914.915V909.333C1228.29 908.188 1227.33 907.615 1226.04 907.615C1225.03 907.615 1224.23 908.008 1223.66 908.794C1223.09 909.581 1222.81 910.745 1222.81 912.287ZM1250.42 918.228H1239.71V916.734L1245.37 910.445C1246.21 909.494 1246.79 908.723 1247.1 908.132C1247.42 907.533 1247.58 906.915 1247.58 906.279C1247.58 905.425 1247.33 904.725 1246.81 904.179C1246.29 903.632 1245.6 903.359 1244.74 903.359C1243.71 903.359 1242.9 903.655 1242.33 904.246C1241.76 904.83 1241.47 905.646 1241.47 906.694H1239.4C1239.4 905.189 1239.88 903.973 1240.85 903.044C1241.82 902.116 1243.12 901.652 1244.74 901.652C1246.26 901.652 1247.46 902.052 1248.35 902.854C1249.23 903.647 1249.67 904.707 1249.67 906.032C1249.67 907.641 1248.65 909.558 1246.6 911.782L1242.22 916.532H1250.42V918.228ZM1262.88 911.254C1262.88 913.687 1262.46 915.495 1261.63 916.678C1260.8 917.861 1259.5 918.453 1257.74 918.453C1255.99 918.453 1254.7 917.876 1253.86 916.723C1253.02 915.563 1252.59 913.833 1252.56 911.535V908.761C1252.56 906.357 1252.97 904.572 1253.81 903.404C1254.64 902.236 1255.94 901.652 1257.71 901.652C1259.47 901.652 1260.77 902.217 1261.6 903.348C1262.43 904.471 1262.86 906.208 1262.88 908.559V911.254ZM1260.8 908.413C1260.8 906.653 1260.55 905.373 1260.06 904.572C1259.57 903.763 1258.78 903.359 1257.71 903.359C1256.65 903.359 1255.88 903.759 1255.39 904.561C1254.9 905.362 1254.65 906.593 1254.64 908.255V911.58C1254.64 913.347 1254.89 914.653 1255.4 915.499C1255.92 916.338 1256.7 916.757 1257.74 916.757C1258.76 916.757 1259.52 916.36 1260.02 915.566C1260.52 914.773 1260.78 913.522 1260.8 911.815V908.413ZM1276.25 918.228H1265.54V916.734L1271.2 910.445C1272.04 909.494 1272.62 908.723 1272.93 908.132C1273.25 907.533 1273.41 906.915 1273.41 906.279C1273.41 905.425 1273.16 904.725 1272.64 904.179C1272.12 903.632 1271.43 903.359 1270.57 903.359C1269.54 903.359 1268.73 903.655 1268.16 904.246C1267.59 904.83 1267.3 905.646 1267.3 906.694H1265.23C1265.23 905.189 1265.71 903.973 1266.68 903.044C1267.65 902.116 1268.95 901.652 1270.57 901.652C1272.09 901.652 1273.29 902.052 1274.18 902.854C1275.06 903.647 1275.5 904.707 1275.5 906.032C1275.5 907.641 1274.48 909.558 1272.43 911.782L1268.05 916.532H1276.25V918.228ZM1288.71 911.254C1288.71 913.687 1288.29 915.495 1287.46 916.678C1286.63 917.861 1285.33 918.453 1283.57 918.453C1281.82 918.453 1280.53 917.876 1279.69 916.723C1278.85 915.563 1278.42 913.833 1278.39 911.535V908.761C1278.39 906.357 1278.8 904.572 1279.64 903.404C1280.47 902.236 1281.77 901.652 1283.54 901.652C1285.3 901.652 1286.6 902.217 1287.43 903.348C1288.26 904.471 1288.69 906.208 1288.71 908.559V911.254ZM1286.63 908.413C1286.63 906.653 1286.38 905.373 1285.89 904.572C1285.4 903.763 1284.61 903.359 1283.54 903.359C1282.48 903.359 1281.71 903.759 1281.22 904.561C1280.73 905.362 1280.48 906.593 1280.47 908.255V911.58C1280.47 913.347 1280.72 914.653 1281.23 915.499C1281.75 916.338 1282.53 916.757 1283.57 916.757C1284.59 916.757 1285.35 916.36 1285.85 915.566C1286.35 914.773 1286.61 913.522 1286.63 911.815V908.413ZM1301.61 912.13H1296.13V910.434H1301.61V912.13ZM1319.85 918.228H1309.14V916.734L1314.8 910.445C1315.64 909.494 1316.21 908.723 1316.53 908.132C1316.85 907.533 1317.01 906.915 1317.01 906.279C1317.01 905.425 1316.75 904.725 1316.24 904.179C1315.72 903.632 1315.03 903.359 1314.17 903.359C1313.14 903.359 1312.33 903.655 1311.75 904.246C1311.19 904.83 1310.9 905.646 1310.9 906.694H1308.82C1308.82 905.189 1309.31 903.973 1310.27 903.044C1311.25 902.116 1312.54 901.652 1314.17 901.652C1315.69 901.652 1316.89 902.052 1317.77 902.854C1318.66 903.647 1319.1 904.707 1319.1 906.032C1319.1 907.641 1318.07 909.558 1316.02 911.782L1311.64 916.532H1319.85V918.228ZM1332.31 911.254C1332.31 913.687 1331.89 915.495 1331.06 916.678C1330.23 917.861 1328.93 918.453 1327.16 918.453C1325.42 918.453 1324.13 917.876 1323.29 916.723C1322.45 915.563 1322.02 913.833 1321.99 911.535V908.761C1321.99 906.357 1322.4 904.572 1323.23 903.404C1324.06 902.236 1325.37 901.652 1327.14 901.652C1328.9 901.652 1330.19 902.217 1331.03 903.348C1331.86 904.471 1332.28 906.208 1332.31 908.559V911.254ZM1330.23 908.413C1330.23 906.653 1329.98 905.373 1329.49 904.572C1328.99 903.763 1328.21 903.359 1327.14 903.359C1326.08 903.359 1325.3 903.759 1324.82 904.561C1324.33 905.362 1324.08 906.593 1324.06 908.255V911.58C1324.06 913.347 1324.32 914.653 1324.83 915.499C1325.34 916.338 1326.12 916.757 1327.16 916.757C1328.19 916.757 1328.95 916.36 1329.44 915.566C1329.94 914.773 1330.21 913.522 1330.23 911.815V908.413ZM1345.68 918.228H1334.97V916.734L1340.63 910.445C1341.47 909.494 1342.04 908.723 1342.36 908.132C1342.68 907.533 1342.84 906.915 1342.84 906.279C1342.84 905.425 1342.58 904.725 1342.07 904.179C1341.55 903.632 1340.86 903.359 1340 903.359C1338.97 903.359 1338.16 903.655 1337.58 904.246C1337.02 904.83 1336.73 905.646 1336.73 906.694H1334.65C1334.65 905.189 1335.14 903.973 1336.1 903.044C1337.08 902.116 1338.37 901.652 1340 901.652C1341.52 901.652 1342.72 902.052 1343.6 902.854C1344.49 903.647 1344.93 904.707 1344.93 906.032C1344.93 907.641 1343.9 909.558 1341.85 911.782L1337.47 916.532H1345.68V918.228ZM1354.71 918.228H1352.62V904.381L1348.43 905.919V904.033L1354.39 901.798H1354.71V918.228Z" fill="#676D74"/>
</g>
<defs>
<clipPath id="clip0">
<rect width="1528.24" height="1080.48" fill="white"/>
</clipPath>
</defs>
</svg>
